<?xml version="1.0" encoding="UTF-8"?>
<svg width="100px" height="100px" viewBox="0 0 100 100" version="1.1" xmlns="http://www.w3.org/2000/svg" xmlns:xlink="http://www.w3.org/1999/xlink">
    <title>ic-cooking</title>
    <g id="Dashboard" stroke="none" stroke-width="1" fill="none" fill-rule="evenodd">
        <g id="Meap-Prep-Reports" transform="translate(-528.000000, -491.000000)">
            <g id="ic-cooking" transform="translate(528.000000, 491.000000)">
                <rect id="Rectangle-Copy-2" fill="#FFECC7" x="0" y="0" width="100" height="100" rx="12"></rect>
                <path d="M64.0203499,68.6820271 C64.435983,69.2499555 64.3215605,70.0544009 63.7644853,70.4780707 C62.1273279,71.7258358 60.0092203,72.8116094 57.6742503,73.5688473 C57.2889263,73.6934561 56.8979633,73.8096777 56.5027712,73.9158348 C57.2271334,74.3740116 57.8979263,74.9098293 58.5022272,75.5122648 C60.6090571,77.6131206 61.9130501,80.5133896 61.9130501,83.7158348 C61.9130501,84.4249066 61.3489263,85.000024 60.6534633,85.000024 C57.8328441,85.000024 55.5685953,84.2164265 53.7704946,83.0005326 C52.3203603,82.0197178 51.1892932,80.7650034 50.3230189,79.4180306 C49.4567446,80.7650034 48.3256774,82.0197178 46.8755432,83.0005326 C45.0776774,84.2164265 42.8131936,85.000024 39.9925744,85.000024 C39.2973464,85.000024 38.7332226,84.4249066 38.7332226,83.7158348 C38.7332226,80.5133896 40.0369807,77.6131206 42.1438105,75.5122648 C42.7483464,74.9098293 43.4186693,74.3740116 44.1435015,73.9158348 C43.7480744,73.8096777 43.3573464,73.6934561 42.9720223,73.5688473 C40.6368175,72.8116094 38.5187098,71.7258358 36.8815524,70.4780707 C36.3244772,70.0544009 36.2102897,69.2499555 36.6256878,68.6820271 C37.041086,68.1140987 37.8298256,67.9976374 38.3866659,68.4213072 C39.8205883,69.5140302 41.6786022,70.4658495 43.7295131,71.1308289 C45.5386566,71.7169694 47.5031045,72.0812104 49.4666126,72.1241046 L49.894992,72.1287175 L49.894992,72.1287175 L50.3230189,72.1286576 C50.6101323,72.1286576 50.8918418,72.130335 51.1794251,72.1241046 C53.1429332,72.0812104 55.1076161,71.7169694 56.9165247,71.1308289 C58.9674355,70.4658495 60.8256844,69.5140302 62.2593719,68.4213072 C62.8162122,67.9976374 63.6049517,68.1140987 64.0203499,68.6820271 Z M50.3230189,74.6972755 C47.8099541,74.6984737 45.5374818,75.7113992 43.8951554,77.3485666 C42.5660223,78.6734933 41.6497029,80.4115459 41.354601,82.3540048 C43.0079703,82.1613405 44.3718765,81.6190527 45.4886115,80.8637319 C47.2427758,79.6770731 48.4252978,77.9459698 49.1764448,76.2083964 C49.3829691,75.7298508 49.8413638,75.4444488 50.3230189,75.4425318 C50.804674,75.4444488 51.2630686,75.7298508 51.4695929,76.2083964 C52.2207399,77.9459698 53.4034969,79.6770731 55.1576612,80.8637319 C56.2743962,81.6190527 57.6380675,82.1613405 59.2916716,82.3540048 C58.9965698,80.4115459 58.0800154,78.6734933 56.7508823,77.3485666 C55.1087909,75.7113992 52.8363186,74.6984737 50.3230189,74.6972755 Z M64.1343287,51.9444444 C64.8345788,51.9444444 65.4027778,52.5160677 65.4027778,53.2208315 C65.4027778,57.5573081 63.6922647,61.4869796 60.9277082,64.3339015 C58.1529758,67.1908267 54.3211235,68.9583333 50.0902778,68.9583333 C45.859432,68.9583333 42.0273431,67.1908267 39.2528473,64.3339015 C36.4880542,61.4869796 34.7777778,57.5573081 34.7777778,53.2208315 C34.7777778,52.5160677 35.3457401,51.9444444 36.0459902,51.9444444 C36.7462404,51.9444444 37.3144394,52.5160677 37.3144394,53.2208315 C37.3144394,56.8706457 38.7483075,60.1722462 41.0660669,62.558535 C43.3741237,64.9352967 46.5648885,66.4050829 50.0902778,66.4050829 C53.615667,66.4050829 56.8064319,64.9352967 59.1140153,62.558535 C61.4320114,60.1722462 62.8658795,56.8706457 62.8658795,53.2208315 C62.8658795,52.5160677 63.4338418,51.9444444 64.1343287,51.9444444 Z M50.8674545,15.1351221 C53.4876229,15.1351221 56.0304848,15.7516527 58.2945253,16.8846586 C60.3389024,17.9076038 62.1546599,19.3526865 63.5933131,21.1455802 C63.8294747,21.1272368 64.0670505,21.1177077 64.3060404,21.1177077 C66.8821347,21.1177077 69.215468,22.1735281 70.9039529,23.8806602 C72.5929091,25.5875541 73.6372525,27.9455213 73.6372525,30.5495767 C73.6372525,33.0683469 72.655367,35.3662811 71.0505522,37.0631694 C69.6293401,38.5654266 67.7190707,39.595995 65.5691044,39.8911578 L65.5691044,47.6025541 C66.2495421,47.8426865 66.8884983,48.1002095 67.4800808,48.3746466 C68.1124377,48.6664742 68.3907879,49.4214145 68.1020673,50.0603383 C67.8131111,50.6990239 67.0664444,50.9806078 66.4343232,50.6885419 C64.5881616,49.8333083 62.175165,49.1476921 59.4239529,48.6719535 C56.6484646,48.192165 53.538532,47.9322597 50.3230101,47.9322597 C47.0933468,47.9322597 43.9697441,48.1945473 41.1852997,48.6781474 C38.4314949,49.1567447 36.01567,49.8480784 34.1676229,50.7114117 C33.5355017,51.0058598 32.7864781,50.7268964 32.4949293,50.0879726 C32.2033805,49.449287 32.4796094,48.6919645 33.1117306,48.3975164 C33.7158047,48.1152178 34.3698451,47.8503098 35.068431,47.6039834 L35.068431,39.8956841 C32.9971852,39.6121944 31.1413603,38.6416591 29.7335825,37.2187314 C28.0446263,35.5118376 27.0000471,33.1536321 27.0000471,30.5495767 C27.0000471,27.9455213 28.0446263,25.5875541 29.7335825,23.8806602 C31.4220673,22.1735281 33.755165,21.1177077 36.3314949,21.1177077 C36.7880269,21.1177077 37.6122357,21.1512976 38.0204512,21.295663 C38.9080606,20.161466 39.9514613,19.1547202 41.1160067,18.3011542 C43.8474209,16.299574 47.2467811,15.1351221 50.8674545,15.1351221 Z M50.8674545,17.6886735 C47.7888687,17.6886735 44.90567,18.6735024 42.5963771,20.3658644 C40.2995758,22.0491738 38.5698451,24.4307255 37.7831111,27.2346531 C37.5950303,27.9121696 36.899037,28.3073876 36.228734,28.117521 C35.558431,27.9274161 35.1676566,27.2236946 35.3555017,26.5464163 C35.6380943,25.5394323 36.0201481,24.5786643 36.4905859,23.6729266 C36.4382626,23.6719737 36.3852323,23.671259 36.3314949,23.671259 C34.452101,23.671259 32.7504175,24.4412075 31.5194074,25.6857035 C30.2881616,26.9301994 29.5266465,28.6499575 29.5266465,30.5495767 C29.5266465,32.4491959 30.2883973,34.1694305 31.5194074,35.41345 C32.7504175,36.6579459 34.452101,37.4278944 36.3314949,37.4278944 C37.6419327,37.4278944 38.8767138,37.0657899 39.9828081,36.3553981 C40.5710909,35.9780471 41.3512256,36.154573 41.7243232,36.7491867 C42.0976566,37.3442769 41.9232458,38.1325688 41.3347273,38.5099198 C40.2069495,39.2341288 38.9177239,39.7055793 37.5947946,39.892349 L37.5947946,46.8407053 C38.5952997,46.5829441 39.654963,46.356867 40.7610572,46.1648563 C43.6954007,45.6550513 46.9646599,45.3787084 50.3230101,45.3787084 C53.6662761,45.3787084 56.922101,45.6526691 59.8479596,46.1584242 C60.9637172,46.3513878 62.0330438,46.5788942 63.0425051,46.8390377 L63.0425051,34.5696512 C63.0425051,33.8647386 63.6083973,33.2927564 64.3060404,33.2927564 C65.0034478,33.2927564 65.5691044,33.8647386 65.5691044,34.5696512 L65.5691044,37.3130692 C66.9971515,37.0426819 68.2639865,36.322761 69.2248956,35.3074391 C70.3950976,34.0705664 71.1111246,32.3922597 71.1111246,30.5495767 C71.1111246,28.6499575 70.3493737,26.9301994 69.1181279,25.6857035 C67.8871178,24.4412075 66.1851987,23.671259 64.3060404,23.671259 C63.5110572,23.671259 62.7379933,23.8091922 62.0163098,24.0681446 C60.5038855,24.609872 59.2111246,25.7011882 58.4090707,27.1055342 C58.0630774,27.713965 57.2942559,27.9238427 56.6920673,27.5743642 C56.0898788,27.2248858 55.8822357,26.447314 56.2279933,25.8388832 C57.2749293,24.0062057 58.8710236,22.6068624 60.8050976,21.8114237 C59.755569,20.7339246 58.5269158,19.8427187 57.1794747,19.1685373 C55.2642559,18.2101516 53.1039192,17.6886735 50.8674545,17.6886735 Z" id="Combined-Shape" fill="#FF8F00"></path>
            </g>
        </g>
    </g>
</svg>