<?xml version="1.0" encoding="UTF-8"?>
<svg width="100px" height="100px" viewBox="0 0 100 100" version="1.1" xmlns="http://www.w3.org/2000/svg" xmlns:xlink="http://www.w3.org/1999/xlink">
    <title>ic-ingredients</title>
    <g id="Dashboard" stroke="none" stroke-width="1" fill="none" fill-rule="evenodd">
        <g id="Meap-Prep-Reports" transform="translate(-1098.000000, -491.000000)">
            <g id="ic-ingredients" transform="translate(1098.000000, 491.000000)">
                <rect id="Rectangle-Copy-5" fill="#EBF5FF" x="0" y="0" width="100" height="100" rx="12"></rect>
                <g id="ic-order" transform="translate(13.000000, 15.000000)" fill="#0D55CF">
                    <path d="M32.0119355,19.7107549 C32.3754013,19.3457686 32.9628957,19.3457686 33.3263614,19.7107549 C33.6898272,20.0757412 33.6898272,20.6656935 33.3263614,21.0306799 L33.3263614,21.0306799 L31.732132,22.6315789 C31.4346664,22.0621629 31.1093135,21.5076824 30.7458478,20.983073 L30.7458478,20.983073 Z M30.61487,13.8830155 C30.9783357,13.5180292 31.5658302,13.5180292 31.9292959,13.8830155 C32.2927616,14.2480018 32.2927616,14.8379541 31.9292959,15.2029405 L31.9292959,15.2029405 L29.9948402,17.1454892 C29.8135721,17.3275156 29.5755997,17.4189955 29.3376273,17.4189955 C29.0996548,17.4189955 28.8616824,17.3275156 28.6804143,17.1454892 C28.3169486,16.7805028 28.3169486,16.1905505 28.6804143,15.8255642 L28.6804143,15.8255642 Z M37.8153955,13.8830155 C38.1788612,13.5180292 38.7663557,13.5180292 39.1298214,13.8830155 C39.4932871,14.2480018 39.4932871,14.8379541 39.1298214,15.2029405 L39.1298214,15.2029405 L37.1953657,17.1454892 C37.0140977,17.3275156 36.7761252,17.4189955 36.5381528,17.4189955 C36.3001803,17.4189955 36.0622079,17.3275156 35.8809398,17.1454892 C35.5174741,16.7805028 35.5174741,16.1905505 35.8809398,15.8255642 L35.8809398,15.8255642 Z M32.2666404,7.37655551e-14 C33.7446724,7.37655551e-14 34.9828727,0.954938636 36.0760586,1.79786101 C36.8206521,2.37194435 37.5234145,2.91428976 38.1750499,3.08884843 C38.8731644,3.27740914 39.7795048,3.15792513 40.7406903,3.03377377 C42.1462151,2.85174735 43.6019371,2.66318664 44.8317712,3.37729031 C46.0811266,4.10352908 46.6463111,5.47479482 47.1938336,6.80125406 C47.4206511,7.35013375 47.6428207,7.8700759 47.8947368,8.31254013 C47.3946229,8.66539136 46.889861,9.02757727 46.3813808,9.40283175 C46.0244222,8.81287944 45.7427595,8.16131818 45.4759701,7.5162912 C45.0279126,6.42879999 44.6040242,5.40198425 43.9003322,4.99312489 C43.2161615,4.59546716 42.1304122,4.73642096 40.9777332,4.88577598 C39.8817585,5.02859671 38.7476711,5.17515132 37.6944572,4.89324373 C36.6849334,4.62160429 35.7990438,3.93923856 34.9429008,3.27834261 C34.0030956,2.55303731 33.1134877,1.86693771 32.2666404,1.86693771 C31.4207228,1.86693771 30.5311148,2.55303731 29.59038,3.27834261 C28.7351666,3.93923856 27.849277,4.62160429 26.8397533,4.89324373 C25.7865393,5.17421785 24.6524519,5.02766324 23.5555476,4.88484251 C22.4056574,4.73642096 21.3189785,4.59360022 20.6338782,4.99312489 C19.9301862,5.40198425 19.5072274,6.42879999 19.0582403,7.51535773 C18.6380702,8.53190531 18.2039565,9.58392471 17.4472785,10.3447018 C16.6906005,11.1045455 15.642964,11.5414089 14.6297219,11.9624033 C13.547691,12.4132688 12.5242236,12.8379971 12.1179972,13.5446331 C11.8112358,14.0767103 11.8270387,14.8524229 11.9181375,15.7102808 C11.3083331,15.9847206 10.7236274,16.3021 10.1584429,16.6512174 C9.97903394,15.2594153 9.80799125,13.8246737 10.5088945,12.6092973 C11.231178,11.3556486 12.5967308,10.7871661 13.9176638,10.2382864 C14.8016942,9.87049965 15.6364569,9.52231577 16.1328525,9.02477687 C16.6283186,8.5263045 16.9741223,7.68804947 17.3413064,6.80032059 C17.8878993,5.47386135 18.4540134,4.10259561 19.7024392,3.37729031 C20.9341325,2.66225317 22.3879954,2.85174735 23.7944497,3.03377377 C24.7547056,3.1588586 25.661046,3.27647567 26.3591605,3.08884843 C27.0107959,2.91428976 27.7135583,2.37194435 28.4581518,1.79786101 C29.5513377,0.954938636 30.789538,7.37655551e-14 32.2666404,7.37655551e-14 Z M26.196577,11.0889565 C26.5600427,10.7239702 27.1475371,10.7239702 27.5110029,11.0889565 C27.8744686,11.4539429 27.8744686,12.0438952 27.5110029,12.4088815 L27.5110029,12.4088815 L25.5774768,14.3504967 C25.3962087,14.5325231 25.1582363,14.6240031 24.9202638,14.6240031 C24.6822914,14.6240031 24.4443189,14.5325231 24.2630509,14.3504967 C23.8995851,13.9864439 23.8995851,13.3955581 24.2630509,13.0305718 L24.2630509,13.0305718 Z M19.7939098,10.2895338 C20.1573755,9.9245475 20.74487,9.9245475 21.1083357,10.2895338 C21.4718015,10.6545201 21.4718015,11.2454059 21.1083357,11.6094588 L21.1083357,11.6094588 L19.1748096,13.551074 C18.9935416,13.7331004 18.7555691,13.8245804 18.5175967,13.8245804 C18.2796243,13.8245804 18.0416518,13.7331004 17.8603837,13.551074 C17.496918,13.1860877 17.496918,12.5952019 17.8603837,12.231149 L17.8603837,12.231149 Z M36.4184229,8.05527612 C36.7818886,7.6902898 37.3693831,7.6902898 37.7328488,8.05527612 C38.0963145,8.42026244 38.0963145,9.01021475 37.7328488,9.37520108 L37.7328488,9.37520108 L35.7983931,11.3177498 C35.6171251,11.4997762 35.3791526,11.5912561 35.1411802,11.5912561 C34.9032077,11.5912561 34.6652353,11.4997762 34.4839672,11.3177498 C34.1205015,10.9527634 34.1205015,10.3628111 34.4839672,9.9978248 L34.4839672,9.9978248 Z M43.6189484,8.05518277 C43.9824141,7.69019645 44.5699086,7.69019645 44.9333743,8.05518277 C45.29684,8.42016909 45.29684,9.01012141 44.9333743,9.37510773 L44.9333743,9.37510773 L42.9989186,11.3176564 C42.8176506,11.4996828 42.5796781,11.5911628 42.3417057,11.5911628 C42.1037333,11.5911628 41.8657608,11.4996828 41.6844927,11.3176564 C41.321027,10.9526701 41.321027,10.3627178 41.6844927,9.99773145 L41.6844927,9.99773145 Z M24.4137358,5.64991358 C24.7772015,5.28492726 25.3646959,5.28492726 25.7281617,5.64991358 C26.0916274,6.0148999 26.0916274,6.60485221 25.7281617,6.96983854 L25.7281617,6.96983854 L23.9601008,8.74529629 C23.7779031,8.92825619 23.5399307,9.01880267 23.3028878,9.01880267 C23.0649154,9.01880267 22.826943,8.92825619 22.6456749,8.74529629 C22.2822092,8.38124344 22.2822092,7.79035766 22.6456749,7.42537134 L22.6456749,7.42537134 Z M31.8309463,5.43064174 C32.1944121,5.06565542 32.7828361,5.06565542 33.1453722,5.43064174 C33.508838,5.7946946 33.508838,6.38651385 33.1453722,6.7505667 L33.1453722,6.7505667 L31.378241,8.52602446 C31.1969729,8.70805089 30.9590004,8.79953083 30.721028,8.79953083 C30.4830556,8.79953083 30.2450831,8.70805089 30.063815,8.52602446 C29.7003493,8.16197161 29.7003493,7.57108582 30.063815,7.2060995 L30.063815,7.2060995 Z" id="salad"></path>
                    <path d="M65.5061227,25.5232219 C65.8660126,25.1779142 66.4477272,25.1779142 66.8076171,25.5232219 C67.167507,25.8685295 67.167507,26.4266739 66.8076171,26.7719816 L66.8076171,26.7719816 L62.8663165,30.5535864 L61.7258981,31.6477967 L61.2491131,32.1052632 L58.6461243,32.1052632 L61.1294566,29.7216687 L62.164025,28.7299026 L63.1654577,27.7681634 Z M73.2010472,18.4249853 C73.4762572,18.4002574 73.7459445,18.4929871 73.9410766,18.6793296 C74.1362087,18.8656721 74.2328543,19.1261983 74.2061617,19.389374 C74.1693444,19.7479288 73.4375989,26.563119 70.2492138,32.1048216 L70.2492138,32.1048216 L68.1174874,32.1048216 C70.772941,27.9867405 71.8572129,22.6198996 72.2198641,20.3308011 C70.3964833,20.5957431 66.7027796,21.2686956 63.1453002,22.7055642 C62.8415568,22.8283206 62.5396543,22.9590253 62.2395926,23.0932626 C61.9349288,23.2292661 61.6348672,23.3723347 61.3366464,23.5207022 C59.8068842,24.2793194 58.3682451,25.1960185 57.2038954,26.3131904 C57.1707598,26.3449835 57.1413059,26.3767765 57.1081702,26.4085696 C55.0979413,28.3567761 53.709926,30.3093983 52.9919871,32.1048216 L52.9919871,32.1048216 L51.0526316,32.1048216 C51.6831292,30.14955 53.0416906,27.9443498 55.4072073,25.5607553 C55.571965,25.3956081 55.7275185,25.2313441 55.902401,25.0635476 C56.2466435,24.7332533 56.6148173,24.4232712 56.9940364,24.1247699 C58.2651564,23.1232893 59.7083977,22.287839 61.2050242,21.5989899 C61.5004837,21.4621033 61.7987045,21.3313986 62.0969253,21.2068758 C62.3979074,21.0797037 62.6998099,20.9578304 63.000792,20.8421391 C67.9665362,18.9389727 72.8917813,18.4541289 73.2010472,18.4249853 Z" id="leaf"></path>
                    <path d="M71.2763895,39.3954487 L63.7934994,39.3954487 L61.9573382,39.3954487 L59.7240689,39.3954487 L59.619225,39.3954487 L58.6181043,39.3954487 L57.4796658,39.3954487 L55.3549518,39.3954487 L54.2638323,39.3954487 L53.6134286,39.3954487 L52.3924139,39.3954487 L52.2949925,39.3954487 L52.1957155,39.3954487 L47.8841233,39.3954487 L44.5699406,39.3954487 L44.0076801,39.3954487 L43.5660364,39.3954487 L42.5621323,39.3954487 L41.7874003,39.3954487 L41.4422503,39.3954487 L40.7834961,39.3954487 L39.779592,39.3954487 L37.8719885,39.3954487 L36.8216932,39.3954487 L36.3549983,39.3954487 L34.9975937,39.3954487 L34.2562634,39.3954487 L30.0959063,39.3954487 L29.4074619,39.3954487 L28.8563352,39.3954487 L27.5555278,39.3954487 L26.9478039,39.3954487 L23.9871216,39.3954487 L22.2205472,39.3954487 L21.8355007,39.3954487 L19.7608892,39.3954487 L19.2079068,39.3954487 L19.091929,39.3954487 C18.7347172,39.3954487 18.4350305,39.602655 18.2800841,39.8968139 C18.2559607,39.9402902 18.2383321,39.9837665 18.2216313,40.0309429 C18.1910131,40.1234457 18.1641063,40.2177986 18.1641063,40.3204767 C18.1641063,40.5582089 18.259672,40.7691153 18.4071958,40.9328452 C18.4118349,40.9383954 18.4146184,40.9457956 18.4192575,40.9522708 C18.5890491,41.1308012 18.8256439,41.2455047 19.091929,41.2455047 L25.1032923,41.2455047 L26.790074,41.2455047 L28.2690234,41.2455047 L37.2865323,41.2455047 L39.0503233,41.2455047 L40.5478292,41.2455047 L41.0692655,41.2455047 L41.5526612,41.2455047 L41.7929672,41.2455047 L42.5565653,41.2455047 L42.7977992,41.2455047 L43.8017034,41.2455047 L46.2409493,41.2455047 L48.5094758,41.2455047 L55.0580485,41.2455047 L55.8235023,41.2455047 L57.1363714,41.2455047 L58.3768704,41.2455047 L59.912417,41.2455047 L70.8746423,41.2455047 C68.3342637,51.7871237 60.9283828,60.7950464 50.7278999,65.1954046 C50.3883168,65.341559 50.1684229,65.6764191 50.1684229,66.0445803 L50.1684229,66.7827526 C50.1684229,67.5366504 49.5532764,68.149944 48.7961731,68.149944 L24.8407185,68.149944 C24.084543,68.149944 23.4693965,67.5366504 23.4693965,66.7827526 L23.4693965,66.0233046 C23.4693965,65.6542185 23.2495026,65.3212084 22.9108473,65.175054 C10.5522488,59.8219169 2.28813188,47.7022001 1.85476468,34.2985444 C1.85298303,34.2310174 1.88638464,34.1819909 1.91514715,34.153315 C1.94112618,34.1255642 1.99772337,34.0802378 2.08401088,34.0802378 L3.62419658,34.0802378 L4.59098785,34.0802378 L5.58097468,34.0802378 L7.88846976,34.0802378 L8.91278603,34.0802378 L9.94452489,34.0802378 L10.2451394,34.0802378 L11.1636839,34.0802378 L12.1165579,34.0802378 L12.5906753,34.0802378 L13.177987,34.0802378 L13.9026166,34.0802378 L15.2145579,34.0802378 L17.3522614,34.0802378 L18.2800841,34.0802378 L18.3505986,34.0802378 L19.2079068,34.0802378 L20.3649017,34.0802378 L21.3456104,34.0802378 L22.6575517,34.0802378 L23.969493,34.0802378 L25.5365855,34.0802378 L26.6147155,34.0802378 L27.5508886,34.0802378 L27.6473822,34.0802378 L28.6716985,34.0802378 L30.9782657,34.0802378 L31.9691804,34.0802378 L31.9942316,34.0802378 L32.7235003,34.0802378 L32.9350438,34.0802378 L32.9517446,34.0802378 L33.928742,34.0802378 L34.7378034,34.0802378 L37.5713739,34.0802378 L38.5752781,34.0802378 L39.5791823,34.0802378 L39.9122706,34.0802378 L42.1520346,34.0802378 L44.7703503,34.0802378 L45.7742545,34.0802378 L46.7790865,34.0802378 L47.0982575,34.0802378 L49.3380215,34.0802378 L50.7761467,34.0802378 L51.7095364,34.0802378 L52.5965349,34.0802378 L52.6336478,34.0802378 L54.4688811,34.0802378 L56.9702911,34.0802378 L59.5941738,34.0802378 L60.3067416,34.0802378 L61.2930172,34.0802378 L62.2709423,34.0802378 L67.0464458,34.0802378 L68.2284919,34.0802378 L69.374353,34.0802378 L71.6001996,34.0802378 C71.6864872,34.0802378 71.7430843,34.1255642 71.7690634,34.153315 C71.7978259,34.1819909 71.8312275,34.2310174 71.8294458,34.2985444 C71.7727747,36.0227966 71.5834988,37.7248481 71.2763895,39.3954487 L71.2763895,39.3954487 Z M27.653877,30.6409837 C27.6251145,30.9295924 27.5796511,31.212651 27.5239818,31.4920095 C27.4738794,31.740842 27.4163543,31.9878245 27.3476955,32.2301818 L26.7826514,32.2301818 L22.1138476,32.2301818 L22.059106,32.1765302 L21.5321027,31.6501893 C21.609112,31.5225354 21.6731318,31.3874813 21.7343681,31.2515022 C21.823439,31.0553963 21.9004483,30.8537402 21.9542621,30.6409837 L27.653877,30.6409837 Z M25.6609138,28.7909277 L24.4074253,28.7909277 L21.9542621,28.7909277 C21.8624076,28.4301668 21.7195229,28.0934566 21.5321027,27.7817222 L25.5616367,23.7652506 C25.9615283,24.2508903 26.3103897,24.7800063 26.6082208,25.3405733 C26.9097631,25.9066904 27.1509971,26.5079586 27.3319225,27.1360526 C27.4850132,27.6707188 27.5982076,28.2220355 27.653877,28.7909277 L25.6609138,28.7909277 Z M20.2210892,26.4737326 C19.908413,26.287802 19.5697577,26.1444226 19.2079068,26.0528448 L19.2079068,25.4821026 L19.2079068,20.4888014 L19.2079068,20.3713229 C19.3368742,20.3833482 19.4621302,20.4055489 19.589242,20.4231244 C20.8371635,20.5970297 22.0071479,21.0114423 23.0490928,21.6238108 C23.4712522,21.8717183 23.8729994,22.1483017 24.2487676,22.456336 L23.4703244,23.2333595 L20.6729389,26.0223189 L20.2210892,26.4737326 Z M16.9551533,28.3025129 C17.3030868,27.9778281 17.7669982,27.775247 18.2800841,27.775247 C18.6308011,27.775247 18.9546112,27.87515 19.2394528,28.0379549 C19.8258368,28.37189 20.2266562,28.9953589 20.2266562,29.7159557 C20.2266562,30.7862131 19.353575,31.6575895 18.2800841,31.6575895 C17.2075211,31.6575895 16.3335121,30.7862131 16.3335121,29.7159557 C16.3335121,29.1572388 16.574746,28.6567987 16.9551533,28.3025129 L16.9551533,28.3025129 Z M14.9807466,25.1194916 L13.6688052,23.811502 L12.3104728,22.456336 C13.7114851,21.3093013 15.449297,20.5572535 17.3522614,20.3713229 L17.3522614,26.0528448 C16.9894827,26.1444226 16.6517553,26.287802 16.339079,26.4737326 L14.9807466,25.1194916 Z M8.90629127,28.7909277 C8.98979532,27.9454521 9.19113284,27.1351276 9.48525264,26.3692044 C9.84988697,25.4182756 10.3611173,24.538574 10.9985315,23.7652506 L12.5285111,25.2906218 L13.4980859,26.256351 L15.0271377,27.7817222 C14.8406453,28.0934566 14.6977606,28.4301668 14.6059062,28.7909277 L11.2045081,28.7909277 L8.90629127,28.7909277 Z M10.1709136,30.6409837 L12.147176,30.6409837 L14.6059062,30.6409837 C14.6977606,31.0017446 14.8406453,31.3393799 15.0280655,31.6501893 L14.8805417,31.7981937 L14.4463207,32.2301818 L12.4097498,32.2301818 L12.2919163,32.2301818 L10.4418379,32.2301818 L9.21154494,32.2301818 C9.06866025,31.7158662 8.96010499,31.1867502 8.90629127,30.6409837 L10.1709136,30.6409837 Z M10.4297762,18.855202 C11.0096654,18.4380144 11.6220283,18.0670781 12.2650095,17.7451684 C12.5118103,17.6212146 12.7576833,17.4944858 13.0128346,17.3853325 C14.0983872,16.9228185 15.2600212,16.6110841 16.4689742,16.4482791 C17.0627807,16.3678017 17.6640098,16.311375 18.2800841,16.311375 C24.9409234,16.311375 30.4716745,21.1714721 31.5275368,27.5180892 C31.6008348,27.9547024 31.651865,28.3987158 31.6806275,28.8492045 C31.7001118,29.1368882 31.725163,29.4236469 31.725163,29.7159557 C31.725163,30.5762318 31.6351642,31.4152321 31.47929,32.2301818 L29.2627215,32.2301818 C29.4482861,31.4207823 29.5568413,30.5817819 29.5568413,29.7159557 C29.5568413,26.6282123 28.3005694,23.8272275 26.2704933,21.7930909 C26.2630707,21.7856907 26.2602872,21.7745904 26.2537925,21.7662651 C26.2454421,21.7588649 26.2343082,21.7560898 26.2259578,21.7486896 C26.1118356,21.6358362 25.9875074,21.5350081 25.8706017,21.4277049 C25.408546,21.0086672 24.9186556,20.6238555 24.393508,20.2834452 C23.4322836,19.6618264 22.3699266,19.1882121 21.2379829,18.8801777 C20.5133534,18.6822218 19.761817,18.558268 18.9861572,18.5092415 C18.7514181,18.4953661 18.5185346,18.4740905 18.2800841,18.4740905 C15.9187753,18.4740905 13.7281859,19.2057876 11.9152203,20.4481002 C11.3511041,20.8347619 10.8203895,21.26675 10.3360661,21.7468395 C10.3267878,21.7551648 10.3147261,21.7579398 10.3063757,21.7662651 C10.2970975,21.7755154 10.294314,21.7875407 10.2859636,21.796791 C9.00927959,23.0779548 8.03970486,24.6634528 7.49692858,26.4330314 C7.17775756,27.4718378 7.00332689,28.5744712 7.00332689,29.7159557 C7.00332689,30.5817819 7.11188215,31.4207823 7.29744669,32.2301818 L5.07995041,32.2301818 C4.9240762,31.4152321 4.8340774,30.5762318 4.8340774,29.7159557 C4.8340774,25.2471455 7.04786238,21.2926508 10.4297762,18.855202 L10.4297762,18.855202 Z M34.2108001,27.4413119 C34.2905928,27.1545532 34.3592517,26.8724196 34.4529618,26.5773357 L34.6366707,27.016724 L36.8022089,32.2301818 L36.4227294,32.2301818 L33.9695662,32.2301818 L33.6030762,32.2301818 C33.5075104,30.7926883 33.7274044,29.1905398 34.2108001,27.4413119 L34.2108001,27.4413119 Z M41.2037998,16.3465261 L45.93384,27.7289956 L46.5387804,29.1859147 L46.6705312,29.5050493 L45.5385875,32.2301818 L43.6912925,32.2301818 L41.3837974,32.2301818 L38.8109451,32.2301818 L35.4067635,24.0372088 C36.5934488,21.3768283 38.7061011,18.7654743 41.2037998,16.3465261 L41.2037998,16.3465261 Z M47.7106205,10.9462126 C48.2608194,10.5447505 48.8082348,10.1571637 49.3491554,9.78252739 C49.3816292,9.75940169 49.4150308,9.73442593 49.4484324,9.71222526 L49.5124522,9.86577991 L50.5349128,12.3263544 L51.5304666,14.7231019 L52.1706643,16.2669737 L51.8635549,17.006071 L48.3452512,25.4747023 L47.6753632,27.0879512 L47.3432027,26.289652 L45.9403348,22.9114498 L45.1711697,21.0623188 L43.678303,17.466735 L43.0770739,16.0218412 L42.6530589,15.0006103 C44.2776765,13.5520165 46.0062102,12.1885252 47.7106205,10.9462126 L47.7106205,10.9462126 Z M58.337809,51.1801204 C58.6653305,50.7888335 59.2507866,50.737957 59.6441834,51.0663419 C60.0375802,51.3938018 60.0886105,51.9774945 59.7583056,52.3687814 C56.7725721,55.9153387 52.9573651,58.7551747 48.7246379,60.5811799 C48.6049488,60.6329815 48.4796927,60.6570322 48.3572201,60.6570322 C47.9972249,60.6570322 47.6557862,60.4479759 47.5045511,60.0992403 C47.3013579,59.6311762 47.5175406,59.0863347 47.9879467,58.8828285 C51.9571723,57.1706017 55.5357845,54.5074461 58.337809,51.1801204 Z M14.492619,39.3954487 C14.728286,39.3954487 14.9379739,39.4907266 15.1021986,39.6350309 C15.29333,39.8043111 15.4204417,40.0448183 15.4204417,40.3204767 C15.4204417,40.4074293 15.3935349,40.4860567 15.3703393,40.5656091 C15.3619889,40.5979851 15.3415768,40.6257359 15.3285873,40.6562618 C15.194053,40.9957471 14.8823046,41.2455047 14.492619,41.2455047 L14.492619,41.2455047 L8.08321975,41.2455047 C7.57106161,41.2455047 7.15539704,40.8310921 7.15539704,40.3204767 C7.15539704,40.2733003 7.17580914,40.2335241 7.18230389,40.1881977 C7.23333414,39.8514875 7.45137248,39.5758291 7.76219309,39.4602006 C7.86332576,39.4222745 7.97002538,39.3954487 8.08321975,39.3954487 L8.08321975,39.3954487 Z M56.8107056,5.10003566 L53.8054879,12.3346796 L53.2061144,13.7740232 C53.1829188,13.766623 53.1597233,13.7573727 53.1346721,13.7518225 L51.9711824,10.9508377 L51.0164528,8.65214317 C53.2914741,7.14804765 55.3419623,5.93256086 56.8107056,5.10003566 Z M73.6831616,34.3577462 C73.7007903,33.7999543 73.4957414,33.2699133 73.1032724,32.865676 C72.7108034,32.4623638 72.1624602,32.2301818 71.6001996,32.2301818 L70.5229975,32.2301818 L69.4532179,32.2301818 L68.3732323,32.2301818 L62.7728944,32.2301818 L61.8181648,32.2301818 L61.4498192,32.2301818 L60.8671465,32.2301818 L58.8259366,32.2301818 L54.2721827,32.2301818 L53.1263217,32.2301818 L52.4137538,32.2301818 L52.1558191,32.2301818 L51.1713992,32.2301818 L50.8772794,32.2301818 L48.5697843,32.2301818 L47.5473237,32.2301818 L51.1574819,23.5404688 L52.0732429,21.3370521 L52.6299365,19.9948365 L54.5663025,15.3354705 L58.525322,5.80768208 C59.4243822,9.06840577 60.8921977,15.089413 61.4052837,21.2260487 C61.7040426,21.0835944 62.0037293,20.9466903 62.3043439,20.8153363 C62.6077419,20.6830573 62.9120678,20.5544784 63.2154658,20.4332998 C62.3971262,11.5761567 59.7361306,3.28698078 59.5589165,2.74121427 C59.5542774,2.73011393 59.5440713,2.72271371 59.5412879,2.71161337 C59.5088141,2.62651079 59.4596395,2.55250855 59.4058258,2.4812814 C59.3844858,2.4516805 59.3714963,2.41745447 59.3464451,2.39155368 C59.2583019,2.29905088 59.1525302,2.22227356 59.0319132,2.17232205 C58.9103684,2.12329556 58.7804733,2.10294495 58.6533615,2.10547146 C58.6181043,2.10664506 58.5874861,2.12144551 58.5540845,2.12514562 C58.4631579,2.13809601 58.3731591,2.15567154 58.2877994,2.19452272 C58.2775933,2.20007289 58.2655316,2.19822283 58.2553256,2.20284797 C57.8610009,2.40357905 53.2014753,4.79847653 47.9546379,8.4680626 C47.4554692,8.81772318 46.9516615,9.17663405 46.4441425,9.5484953 C41.2037998,13.3919866 35.7324293,18.3871378 33.5390564,23.6671976 C33.3061729,24.2268396 33.1094745,24.7670559 32.9220543,25.3035722 C32.640924,24.3794692 32.2660837,23.4979175 31.8235122,22.6570671 C31.5256811,22.0928 31.201871,21.5442584 30.8381645,21.0234676 C28.0732528,17.0615727 23.4768191,14.461319 18.2800841,14.461319 C16.0588765,14.461319 13.952719,14.9460337 12.0460433,15.7989095 C11.4373916,16.0708677 10.8537911,16.3853772 10.2896749,16.7313377 C5.91220739,19.418544 2.97843198,24.2259145 2.97843198,29.7159557 C2.97843198,30.5743817 3.06750296,31.410607 3.20482072,32.2301818 L2.08401088,32.2301818 C1.52175032,32.2301818 0.973407098,32.4623638 0.580938091,32.865676 C0.188469085,33.2699133 -0.0165797345,33.7999543 0.00104889702,34.3577462 C0.450115089,48.2701673 8.91000256,60.8681236 21.6137511,66.6236478 L21.6137511,66.7827526 C21.6137511,68.5569563 23.0611545,70 24.8407185,70 L48.7961731,70 C50.575737,70 52.0240683,68.5569563 52.0240683,66.7827526 L52.0240683,66.6458485 C62.7831004,61.7903765 70.4840289,52.0285561 72.8880176,40.7099135 C72.9446148,40.5905849 72.9817277,40.4610809 72.9817277,40.3204767 C72.9817277,40.3121514 72.9770885,40.3056762 72.9761607,40.298276 C73.3658463,38.3547922 73.6172862,36.3733822 73.6831616,34.3577462 L73.6831616,34.3577462 Z" id="bowl"></path>
                </g>
            </g>
        </g>
    </g>
</svg>