<?xml version="1.0" encoding="UTF-8"?>
<svg width="100px" height="100px" viewBox="0 0 100 100" version="1.1" xmlns="http://www.w3.org/2000/svg" xmlns:xlink="http://www.w3.org/1999/xlink">
    <title>ic-packing</title>
    <g id="Dashboard" stroke="none" stroke-width="1" fill="none" fill-rule="evenodd">
        <g id="Meap-Prep-Reports" transform="translate(-242.000000, -491.000000)">
            <g id="ic-packing" transform="translate(242.000000, 491.000000)">
                <rect id="Rectangle" fill="#FFEAEA" x="0" y="0" width="100" height="100" rx="12"></rect>
                <g id="Group-15" transform="translate(12.000000, 15.000000)" fill-rule="nonzero">
                    <path d="M37.8652902,13.4472094 L9.57753716,21.3185244 C8.06805693,21.7385504 8.06805693,23.9144406 9.57753716,24.3344667 L37.8652902,32.2057817 C38.1312128,32.279777 38.4118151,32.279777 38.6777377,32.2057817 L66.9654907,24.3344667 C68.474971,23.9144406 68.474971,21.7385504 66.9654907,21.3185244 L38.6777377,13.4472094 C38.4118151,13.3732141 38.1312128,13.3732141 37.8652902,13.4472094 Z M38.2715139,16.250738 L60.7817682,22.5407487 L38.2715139,28.8304481 L15.7612596,22.5407487 L38.2715139,16.250738 Z" id="Stroke-1" fill="#111111"></path>
                    <path d="M45.5826645,0.93333371 C45.9409565,0.344568255 46.6406536,0.0653266356 47.3003008,0.247843458 L47.3003008,0.247843458 L75.6063197,8.07979431 C76.5963539,8.35372544 77.0487761,9.51168451 76.5110118,10.395323 L76.5110118,10.395323 L68.923,22.8625 L76.5077584,35.1506903 C77.0294577,35.9959013 76.6322993,37.0920715 75.7179924,37.4255326 L75.5901465,37.4661819 L68.276,39.4605 L68.2761028,60.3206386 C68.2761028,60.9924333 67.841767,61.5840213 67.2072963,61.7884836 L67.140957,61.8082414 L39.0344495,69.5039573 C38.8304614,69.5837937 38.6058836,69.6279839 38.3700413,69.6279839 L38.3576553,69.6279341 C38.3396396,69.6277895 38.3216258,69.6273293 38.3036224,69.6265534 L38.3700413,69.6279839 C38.1340369,69.6279839 37.9093126,69.583733 37.7052127,69.5037927 L9.59912546,61.8082414 C8.95113077,61.6308423 8.49519515,61.0557342 8.46551944,60.3898359 L8.46397969,60.3206386 L8.463,39.4605 L1.14994021,37.466183 C0.189437359,37.2041529 -0.272163598,36.1333191 0.166852038,35.2673848 L0.232337868,35.1506681 L8.1,22.4025 L0.793322535,10.3953008 C0.278959553,9.55008296 0.670533218,8.4538977 1.57197679,8.12044357 L1.69802407,8.07979542 L30.0037384,0.247844576 C30.6633774,0.0653280581 31.3630677,0.344558991 31.7213652,0.933311503 L31.7213652,0.933311503 L38.652,12.3215 Z M36.677,36.3905 L31.6022014,44.6129788 C31.2387822,45.2017362 30.5290881,45.4809663 29.8600219,45.2984416 L29.8600219,45.2984416 L11.548,40.3025 L11.5487141,59.1436072 L36.677,66.0235 L36.677,36.3905 Z M40.062,36.3895 L40.062,66.0235 L65.1910022,59.1436072 L65.191,40.3025 L46.8803737,45.2984405 C46.2591057,45.4679275 45.6028052,45.2392782 45.2212395,44.7343674 L45.1382038,44.613001 L40.062,36.3895 Z M66.2529172,24.4666935 L40.6271025,31.4249428 L47.1650297,41.9666935 L72.7902253,35.0084443 L66.2529172,24.4666935 Z M10.4875378,24.4666935 L3.94985719,35.0084443 L29.5752994,41.9666935 L36.11298,31.4249428 L10.4875378,24.4666935 Z M38.652,16.6555 L16.376,22.8185 L38.37,28.8185 L60.647,22.7415 L38.652,16.6555 Z M29.6900574,3.57959677 L4.5141225,10.5375391 L10.9370451,21.0795968 L36.11298,14.1213475 L29.6900574,3.57959677 Z M47.6140482,3.57959677 L41.1913678,14.1213475 L66.3669368,21.0795968 L72.7902253,10.5375391 L47.6140482,3.57959677 Z" id="Combined-Shape" fill="#BD0303"></path>
                </g>
            </g>
        </g>
    </g>
</svg>