<?xml version="1.0" encoding="UTF-8"?>
<svg width="100px" height="100px" viewBox="0 0 100 100" version="1.1" xmlns="http://www.w3.org/2000/svg" xmlns:xlink="http://www.w3.org/1999/xlink">
    <title>ic-revenue</title>
    <g id="Dashboard" stroke="none" stroke-width="1" fill="none" fill-rule="evenodd">
        <g id="Meap-Prep-Reports" transform="translate(-242.000000, -766.000000)">
            <g id="ic-revenue" transform="translate(242.000000, 766.000000)">
                <rect id="Rectangle-Copy" fill="#FFECC7" x="0" y="0" width="100" height="100" rx="12"></rect>
                <path d="M41.8955092,79.2068966 C41.8955092,80.7973889 45.0454391,82.1941063 49.7931034,82.1941063 C54.5407678,82.1941063 57.6906977,80.7973889 57.6906977,79.2068966 L60.4137931,79.2068966 C60.4137931,82.9180455 55.8480286,85 49.7931034,85 C43.7381783,85 39.1724138,82.9180455 39.1724138,79.2068966 L41.8955092,79.2068966 Z M18.7233197,79.2068966 C18.7233197,80.7973889 21.8729541,82.1941063 26.620561,82.1941063 C31.3681679,82.1941063 34.5180596,80.7973889 34.5180596,79.2068966 L37.2413793,79.2068966 C37.2413793,82.9180455 32.6756701,85 26.620561,85 C20.5657092,85 16,82.9180455 16,79.2068966 L18.7233197,79.2068966 Z M65.5509059,79.2068966 C65.5509059,80.7973889 68.7007976,82.1941063 73.4484045,82.1941063 C78.1960114,82.1941063 81.3456458,80.7973889 81.3456458,79.2068966 L84.0689655,79.2068966 C84.0689655,82.9180455 79.5032563,85 73.4484045,85 C67.3932954,85 62.8275862,82.9180455 62.8275862,79.2068966 L65.5509059,79.2068966 Z M41.8955092,73.8965517 C41.8955092,75.221962 45.0454391,76.8837615 49.7931034,76.8837615 C54.5407678,76.8837615 57.6906977,75.221962 57.6906977,73.8965517 L60.4137931,73.8965517 C60.4137931,77.6077006 55.8480286,79.6896552 49.7931034,79.6896552 C43.7381783,79.6896552 39.1724138,77.6077006 39.1724138,73.8965517 L41.8955092,73.8965517 Z M65.5509059,73.8965517 C65.5509059,75.221962 68.7007976,76.8837615 73.4484045,76.8837615 C78.1960114,76.8837615 81.3456458,75.221962 81.3456458,73.8965517 L84.0689655,73.8965517 C84.0689655,77.6077006 79.5032563,79.6896552 73.4484045,79.6896552 C67.3932954,79.6896552 62.8275862,77.6077006 62.8275862,73.8965517 L65.5509059,73.8965517 Z M26.6206897,68.1034483 C32.6743644,68.1034483 37.2413793,70.4893993 37.2413793,73.6536483 C37.2413793,76.8181514 32.6743644,79.2068966 26.6206897,79.2068966 C20.5639273,79.2068966 16,76.8181514 16,73.6536483 C16,70.4893993 20.5639273,68.1034483 26.6206897,68.1034483 Z M26.6206897,70.7921836 C21.8722806,70.7921836 18.7234847,72.5164289 18.7234847,73.6536483 C18.7234847,74.79417 21.8722806,76.5184152 26.6206897,76.5184152 C31.3690987,76.5184152 34.5181519,74.79417 34.5181519,73.6536483 C34.5181519,72.5164289 31.3690987,70.7921836 26.6206897,70.7921836 Z M41.8955092,68.5862069 C41.8955092,70.1766993 45.0454391,71.5734167 49.7931034,71.5734167 C54.5407678,71.5734167 57.6906977,70.1766993 57.6906977,68.5862069 L60.4137931,68.5862069 C60.4137931,72.0322737 55.8480286,74.3793103 49.7931034,74.3793103 C43.7381783,74.3793103 39.1724138,72.0322737 39.1724138,68.5862069 L41.8955092,68.5862069 Z M65.5509059,68.5862069 C65.5509059,70.1766993 68.7007976,71.5734167 73.4484045,71.5734167 C78.1960114,71.5734167 81.3456458,70.1766993 81.3456458,68.5862069 L84.0689655,68.5862069 C84.0689655,72.0322737 79.5032563,74.3793103 73.4484045,74.3793103 C67.3932954,74.3793103 62.8275862,72.0322737 62.8275862,68.5862069 L65.5509059,68.5862069 Z M49.7915599,57.4827586 C55.8476992,57.4827586 60.4137931,59.8687642 60.4137931,63.0330857 C60.4137931,66.1974071 55.8476992,68.5862069 49.7915599,68.5862069 C43.738765,68.5862069 39.1724138,66.1974071 39.1724138,63.0330857 C39.1724138,59.8687642 43.738765,57.4827586 49.7915599,57.4827586 Z M65.5509059,62.7931034 C65.5509059,64.6486779 68.7007976,65.7803132 73.4484045,65.7803132 C78.1960114,65.7803132 81.3456458,64.6486779 81.3456458,62.7931034 L84.0689655,62.7931034 C84.0689655,66.2391703 79.5032563,68.5862069 73.4484045,68.5862069 C67.3932954,68.5862069 62.8275862,66.2391703 62.8275862,62.7931034 L65.5509059,62.7931034 Z M49.7915599,60.1713015 C45.0469281,60.1713015 41.8955026,61.8958402 41.8955026,63.0330857 C41.8955026,64.1733794 45.0469281,65.897664 49.7915599,65.897664 C54.5395361,65.897664 57.6909615,64.1733794 57.6909615,63.0330857 C57.6909615,61.8958402 54.5395361,60.1713015 49.7915599,60.1713015 Z M65.5509059,57.4827586 C65.5509059,59.6034151 68.7007976,60.4699684 73.4484045,60.4699684 C78.1960114,60.4699684 81.3456458,59.6034151 81.3456458,57.4827586 L84.0689655,57.4827586 C84.0689655,60.9288255 79.5032563,63.2758621 73.4484045,63.2758621 C67.3932954,63.2758621 62.8275862,60.9288255 62.8275862,57.4827586 L65.5509059,57.4827586 Z M73.4484045,45.8965517 C79.5021526,45.8965517 84.0689655,48.2829584 84.0689655,51.4484029 C84.0689655,54.6135933 79.5021526,57 73.4484045,57 C67.3913115,57 62.8275862,54.6135933 62.8275862,51.4484029 C62.8275862,48.2829584 67.3913115,45.8965517 73.4484045,45.8965517 Z M81.661145,15.0007723 C82.4248539,14.9748652 83.1353463,15.6038175 83.1023418,16.4300229 L82.6945187,27.6108563 C82.6666311,28.3442065 82.0656421,28.9185231 81.3405664,28.9185231 L81.2906758,28.9185231 C80.543853,28.8903075 79.9584707,28.2600726 79.9866141,27.5110755 L80.2606282,20.0372646 L45.8105761,50.3880626 C45.443433,50.7125425 44.9266182,50.8123233 44.4630201,50.646877 L30.0175363,45.4731541 L18.6939206,54.7630264 C18.1116085,55.2385882 17.2588642,55.1480417 16.7891256,54.572699 C16.3158052,53.9922263 16.3999795,53.1372923 16.9789655,52.6627565 L28.893848,42.8860361 C29.2640613,42.5864372 29.7591289,42.4992253 30.2073761,42.6582589 L44.6216464,47.8196696 L78.6449425,17.8467047 L69.5313495,18.2399281 C69.5129284,18.2399281 69.4942514,18.2430062 69.4725042,18.2430062 C68.749987,18.2430062 68.1525798,17.6720242 68.1213663,16.941752 C68.0904086,16.1927549 68.6693946,15.5591855 69.4162175,15.5281483 L81.661145,15.0007723 Z M73.4484045,48.5858329 C68.699938,48.5858329 65.5508466,50.307796 65.5508466,51.4484029 C65.5508466,52.5890098 68.699938,54.3107189 73.4484045,54.3107189 C78.1968711,54.3107189 81.3457052,52.5890098 81.3457052,51.4484029 C81.3457052,50.307796 78.1968711,48.5858329 73.4484045,48.5858329 Z" id="Combined-Shape" fill="#FF8F00"></path>
            </g>
        </g>
    </g>
</svg>