<?xml version="1.0" encoding="UTF-8"?>
<svg width="100px" height="100px" viewBox="0 0 100 100" version="1.1" xmlns="http://www.w3.org/2000/svg" xmlns:xlink="http://www.w3.org/1999/xlink">
    <title>ic-route</title>
    <g id="Dashboard" stroke="none" stroke-width="1" fill="none" fill-rule="evenodd">
        <g id="Meap-Prep-Reports" transform="translate(-528.000000, -764.000000)">
            <g id="ic-route" transform="translate(528.000000, 764.000000)">
                <rect id="Rectangle-Copy-4" fill="#FFEAEA" x="0" y="0" width="100" height="100" rx="12"></rect>
                <path d="M64.6335878,15 C72.4406361,15 78.7938931,21.3960687 78.7938931,29.2557252 C78.7938931,33.118356 75.503605,40.5981241 72.2432388,47.0619857 L77.2698434,47.0610687 C77.9894204,47.0610687 78.6166623,47.5384669 78.8045165,48.2276908 L87.027915,78.163545 C87.2674495,78.4863762 87.3754952,78.88833 87.3352924,79.2845411 L88.3564235,83.0050445 C88.4869662,83.4792812 88.3850792,83.9882952 88.0857861,84.3803308 C87.7864931,84.7692048 87.3184496,85 86.8217504,85 L13.5904633,85 C13.0937641,85 12.6257207,84.7692048 12.3264276,84.3803308 C12.0271345,83.9882952 11.9252475,83.4792812 12.0557902,83.0050445 L21.6076973,48.2276908 C21.7955514,47.5384669 22.4227933,47.0610687 23.1423703,47.0610687 L57.0239368,47.0619857 C53.7635705,40.5981241 50.4732824,33.118356 50.4732824,29.2557252 C50.4732824,21.3960687 56.8265394,15 64.6335878,15 Z M38.707,50.222 L29.582,50.222 L77.676,81.838 L84.7362507,81.8384224 L84.247,80.057 L71.3867481,71.6330187 C71.3364741,71.6384738 71.2859053,71.6412214 71.2352329,71.6412214 C70.9268455,71.6412214 70.6184581,71.5414501 70.3497641,71.3319304 C70.1055854,71.1428031 69.9281368,70.8893957 69.822902,70.6078452 L38.707,50.222 Z M20.831,63.067 L15.675963,81.8384224 L31.416,81.838 L37.181,73.967 L20.831,63.067 Z M47.279,65.653 L41.3872225,73.6973279 C41.4041559,74.0289119 41.3184885,74.3687461 41.1202797,74.6667048 C40.8942243,75.00814 40.559216,75.2337056 40.1927335,75.3294301 L35.423,81.838 L47.734,81.838 L44.8376096,80.1737901 C44.4624403,79.9587457 44.193088,79.6023865 44.1000973,79.1938022 C44.0039001,78.7821459 44.087271,78.3551292 44.3309707,78.0049141 L47.5375459,73.3968206 C48.0089124,72.7148228 48.9548521,72.5028505 49.6955709,72.9329392 L57.7120087,77.5410327 C58.087178,77.7560771 58.3565303,78.1124363 58.449521,78.5210206 C58.5457182,78.9326769 58.4623473,79.3596936 58.2186476,79.7099087 L56.737,81.838 L71.898,81.838 L47.279,65.653 Z M49.3524674,76.3183519 L47.928748,78.3674175 L53.1939444,81.3933988 L54.6176637,79.3443333 L49.3524674,76.3183519 Z M79.009,60.986 L73.593,69.244 L82.963,75.384 L79.009,60.986 Z M24.274,50.53 L21.725,59.812 L39.077,71.379 L44.574,63.875 L24.274,50.53 Z M58.6200452,50.1570241 L58.5890845,50.1661477 C58.4543555,50.2029743 58.312492,50.2226463 58.1660294,50.2226463 L44.558,50.222 L70.97,67.526 L77.6289278,57.3739277 C77.7146076,57.2440874 77.8142931,57.1316237 77.9241208,57.0372411 L76.0535673,50.2226463 L70.9019054,50.2226463 C70.8077018,50.2226463 70.7154008,50.2145081 70.625677,50.1989014 C68.4090685,54.4059382 66.4813656,57.7308293 65.9898304,58.5718321 C65.7066243,59.0533588 65.1905598,59.351145 64.6335878,59.351145 C64.0766158,59.351145 63.5605513,59.0533588 63.2773452,58.5718321 C62.7841815,57.728043 60.845318,54.3838797 58.6200452,50.1570241 Z M64.6335878,18.1679389 C58.5603902,18.1679389 53.620017,23.1416031 53.620017,29.2557252 C53.620017,34.0329771 60.6435284,47.5093893 64.6335878,54.5960687 C68.6236472,47.5093893 75.6471586,34.0329771 75.6471586,29.2557252 C75.6471586,23.1416031 70.7067854,18.1679389 64.6335878,18.1679389 Z M64.3664122,21.9465649 C68.7844275,21.9465649 72.3816794,25.5438168 72.3816794,29.9618321 C72.3816794,34.3798473 68.7844275,37.9770992 64.3664122,37.9770992 C59.9483969,37.9770992 56.351145,34.3798473 56.351145,29.9618321 C56.351145,25.5438168 59.9483969,21.9465649 64.3664122,21.9465649 Z M64.3664122,25.1526718 C61.7149618,25.1526718 59.5572519,27.3103817 59.5572519,29.9618321 C59.5572519,32.6132824 61.7149618,34.7709924 64.3664122,34.7709924 C67.0178626,34.7709924 69.1755725,32.6132824 69.1755725,29.9618321 C69.1755725,27.3103817 67.0178626,25.1526718 64.3664122,25.1526718 Z" id="Combined-Shape" fill="#BD0303" fill-rule="nonzero"></path>
            </g>
        </g>
    </g>
</svg>