<?xml version="1.0" encoding="UTF-8"?>
<svg width="100px" height="100px" viewBox="0 0 100 100" version="1.1" xmlns="http://www.w3.org/2000/svg" xmlns:xlink="http://www.w3.org/1999/xlink">
    <title>ic-tips</title>
    <g id="Dashboard" stroke="none" stroke-width="1" fill="none" fill-rule="evenodd">
        <g id="Meap-Prep-Reports" transform="translate(-813.000000, -491.000000)">
            <g id="ic-tips" transform="translate(813.000000, 491.000000)">
                <rect id="Rectangle-Copy-3" fill="#CFF8EB" x="0" y="0" width="100" height="100" rx="12"></rect>
                <path d="M62.1721597,25 C62.5901877,25 62.9332708,25.3312072 62.9418083,25.7468936 C62.9698411,27.1057057 64.7658783,28.0818564 66.8454123,29.2121085 C68.4948603,30.1085725 70.3643022,31.1246318 71.8286983,32.5904045 C73.4803907,34.2436085 74.3261283,36.1714679 74.4082904,38.4733187 C74.4125592,38.5058207 74.4155077,38.5386713 74.4155077,38.5722626 C74.4155077,38.6096443 74.4146715,38.645109 74.4137034,38.6797459 C74.4144515,38.7271484 74.4151116,38.7745508 74.4151996,38.8222582 L74.4151996,38.8222582 L74.4155077,38.8306234 L74.4210526,77.8780868 C74.4210526,77.9063192 74.4199964,77.9318067 74.4186762,77.9535909 C74.4199964,77.9897963 74.4210526,78.0260452 74.4210526,78.062512 C74.4210526,79.5989962 73.8079831,81.2520259 72.7810663,82.4844025 C71.8248256,83.6319949 70.0283483,85 66.9004658,85 L66.9004658,85 L33.9579341,85 C32.7350516,85 31.5798967,84.7595894 30.524463,84.2854342 C29.5891699,83.8652603 28.7518378,83.2723811 28.0356585,82.5233091 C26.7829388,81.2130322 26.0047528,79.503712 26.0047528,78.062512 C26.0047528,78.0260888 26.005853,77.9899705 26.0071732,77.9538523 C26.005809,77.9318067 26.0047528,77.9062756 26.0047528,77.8782175 L26.0047528,77.8782175 L26,39.0890277 C26,39.0555236 26.0011442,39.0215838 26.0034326,38.987644 C26.0017603,38.9451648 26.0006601,38.9002022 26,38.8538453 L26,38.8538453 L26,38.8258744 C26.0053689,36.367308 26.8514586,34.327347 28.5868094,32.5904045 C30.0512055,31.1246318 31.9206914,30.1085725 33.5700953,29.2121085 C35.6496734,28.0818564 37.4456666,27.1057057 37.4736554,25.7468936 C37.4823249,25.3259354 37.8341655,24.9921577 38.2593667,25 C38.6845679,25.0087573 39.022282,25.3569997 39.0136125,25.7780014 C38.9674486,28.0182029 36.7057672,29.2474425 34.311315,30.5488315 C31.1392488,32.2728342 27.5443139,34.2268347 27.5403532,38.8407313 C27.5405732,38.8793329 27.5420255,38.920505 27.5442699,38.9697809 C27.5460302,39.0086875 27.544754,39.0476377 27.5404852,39.0863265 L27.5404852,39.0863265 L27.5417614,51.1073352 L27.545018,77.8674997 L27.5458101,77.8776947 C27.5481866,77.9063192 27.5489347,77.935205 27.5480105,77.9638731 L27.5480105,77.9638731 L27.5467343,77.9997299 C27.5459422,78.0205992 27.545018,78.0414684 27.545018,78.062512 C27.545018,78.8602499 27.9664786,80.2326554 29.1543311,81.4750963 C30.0266053,82.3875063 31.5680587,83.475105 33.9579341,83.475105 L33.9579341,83.475105 L66.9004658,83.475105 C71.8064305,83.475105 72.8807874,79.5679755 72.8807874,78.062512 C72.8807874,78.0411199 72.8798633,78.0198585 72.8790711,77.9986407 L72.8790711,77.9986407 L72.8778389,77.9643087 C72.8769148,77.9359457 72.8776189,77.9076262 72.8798633,77.8793939 L72.8798633,77.8793939 L72.8807874,77.8673254 L72.8752425,38.8483122 L72.8751105,38.8376433 L72.8751105,38.8376433 L72.8749784,38.8270508 C72.8710618,38.7896255 72.8695655,38.7488454 72.8712818,38.7114637 L72.8712818,38.7114637 L72.8730421,38.6671111 C72.7800541,34.1776023 69.236168,32.25105 66.1042367,30.5488315 C63.7096965,29.2474425 61.4480591,28.0182029 61.4018951,25.7780014 C61.3932256,25.3569997 61.7309398,25.0087573 62.156141,25 L62.156141,25 Z M60.9999564,60.7894737 C62.3143009,60.7894737 63.5894965,61.0470168 64.7902352,61.5549019 C65.9497302,62.045373 66.9909494,62.7472992 67.8850004,63.6413026 C68.7790078,64.5353496 69.4809808,65.5766078 69.9714541,66.7360539 C70.4793414,67.9367436 70.7368421,69.2120208 70.7368421,70.5263594 C70.7368421,71.8406544 70.4793414,73.115888 69.9714541,74.316534 C69.4809372,75.4761547 68.7789642,76.5174129 67.8850004,77.4112853 C66.9910803,78.3052014 65.9498174,79.0071713 64.7902352,79.497686 C63.5894529,80.0055711 62.3142136,80.2631579 60.9999564,80.2631579 C59.6857864,80.2631579 58.4105471,80.0055711 57.2098084,79.497686 C56.050008,79.007084 55.0087888,78.3051578 54.1149996,77.4112853 C53.2211231,76.5174129 52.5191501,75.4761983 52.0286332,74.316534 C51.5207022,73.1157571 51.2631579,71.8405235 51.2631579,70.5263594 C51.2631579,69.2121518 51.5207022,67.9368745 52.0286332,66.7360539 C52.5190628,65.5765205 53.2210358,64.535306 54.1149996,63.6413026 C55.0089633,62.7473865 56.0501826,62.0454166 57.2098084,61.5549019 C58.4105035,61.0470168 59.6856991,60.7894737 60.9999564,60.7894737 Z M39.4210308,60.7894737 C40.7353724,60.7894737 42.0105652,61.0470168 43.2113448,61.5549019 C44.3707499,62.045373 45.4119668,62.7472992 46.3060594,63.6413026 C47.2000648,64.5353496 47.9020363,65.5766078 48.3924648,66.7360539 C48.9003946,67.9367436 49.1578947,69.2120208 49.1578947,70.5263594 C49.1578947,71.8406544 48.9003946,73.115888 48.3924648,74.316534 C47.901949,75.4761547 47.1999775,76.5174129 46.3060594,77.4112853 C45.4121413,78.3052014 44.3709245,79.0071713 43.2113448,79.497686 C42.0105215,80.0055711 40.7352851,80.2631579 39.4210308,80.2631579 C38.1068202,80.2631579 36.8316274,80.0055711 35.6308041,79.497686 C34.4711372,79.0071277 33.4299203,78.3051578 32.5360458,77.4112853 C31.6421277,76.5173692 30.9401563,75.4761111 30.4496841,74.316534 C29.9417543,73.1156261 29.6842105,71.8404362 29.6842105,70.5263594 C29.6842105,69.212239 29.9417543,67.9370055 30.4496841,66.7360539 C30.9401127,65.5766078 31.6420841,64.5353496 32.5360458,63.6413026 C33.4300512,62.7473428 34.4713117,62.045373 35.6308041,61.5549019 C36.8315401,61.0470168 38.1067765,60.7894737 39.4210308,60.7894737 Z M60.9999564,62.2236587 C56.4219,62.2236587 52.6973493,65.9482363 52.6973493,70.5263594 C52.6973493,75.1044389 56.4219,78.8289729 60.9999564,78.8289729 C65.5781,78.8289729 69.3026943,75.1044389 69.3026943,70.5263594 C69.3026943,65.9482363 65.5781,62.2236587 60.9999564,62.2236587 Z M39.4210308,62.2236587 C34.8429411,62.2236587 31.1183987,65.9482363 31.1183987,70.5263594 C31.1183987,75.1044389 34.8429411,78.8289729 39.4210308,78.8289729 C43.9991642,78.8289729 47.7237502,75.1044389 47.7237502,70.5263594 C47.7237502,65.9482363 43.9991642,62.2236587 39.4210308,62.2236587 Z M60.8494985,63.9473684 C61.2953018,63.9473684 61.6642088,64.2770013 61.6719263,64.682219 L61.6719263,64.682219 L61.6834096,65.2934045 C62.3163396,65.4005922 62.9000355,65.642768 63.3767554,65.9966945 C64.1012729,66.5347879 64.5085815,67.2694695 64.5237376,68.0655401 C64.5314086,68.4777713 64.1687315,68.8188539 63.7151642,68.8259096 L63.7151642,68.8259096 L63.7007519,68.8259941 C63.2548557,68.8259941 62.8859952,68.4964034 62.8784171,68.0911857 C62.8718154,67.7422869 62.6790633,67.4096966 62.3354939,67.1546768 C62.1378602,67.0078588 61.8997792,66.8938266 61.6402194,66.8209035 L61.6402194,66.8209035 L61.6402194,69.5294108 C62.4638094,69.6886081 62.9845099,69.9315021 63.1282604,70.0042562 C64.246976,70.5712907 64.9268155,71.5438809 64.9468997,72.6059984 C64.9552681,73.0472975 64.8515464,73.4761751 64.6385706,73.8806746 C64.438194,74.2611762 64.1504605,74.6022588 63.7834131,74.8944583 C63.1946497,75.3632198 62.4561849,75.6664465 61.641986,75.7746905 L61.641986,75.7746905 L61.6528185,76.3447669 C61.6565842,76.5444817 61.5745274,76.7335495 61.4218041,76.8771565 C61.2691273,77.0208058 61.063962,77.1017564 60.8441985,77.1052632 L60.8441985,77.1052632 L60.8298793,77.1052632 C60.384169,77.1052632 60.0153085,76.7756725 60.007591,76.3705393 L60.007591,76.3705393 L59.9952708,75.71947 C59.3648049,75.5903546 58.781016,75.3356307 58.3020645,74.9799297 C57.9241848,74.6993488 57.6237127,74.3674767 57.4090633,73.9934815 C57.1809314,73.5958687 57.0610773,73.1704556 57.0527554,72.7291988 C57.0449449,72.3169676 57.4076685,71.9758428 57.8612823,71.9687448 L57.8612823,71.9687448 L57.8756481,71.9686603 C58.3214048,71.9686603 58.6903583,72.2982932 58.6980293,72.7035109 C58.7099776,73.338314 59.2427657,73.9165869 60.0398093,74.1770991 L60.0398093,74.1770991 L60.0398093,70.8271554 C59.5681105,70.7524578 58.9251384,70.6042033 58.4116906,70.2170684 L58.4116906,70.2170684 C57.7101862,69.6775809 57.3190565,68.9551517 57.3043653,68.1781358 C57.2893487,67.3821497 57.6686696,66.6351734 58.3725451,66.0747722 C58.8355501,65.706185 59.4096688,65.4459263 60.0381821,65.3190924 L60.0381821,65.3190924 L60.0266523,64.7079069 C60.0188418,64.2956757 60.3815655,63.9545509 60.8351793,63.9473684 L60.8351793,63.9473684 Z M39.2705529,63.9473684 C39.716356,63.9473684 40.0852628,64.2770013 40.0929338,64.682219 L40.0929338,64.682219 L40.1044636,65.2934045 C40.7373934,65.4005922 41.3210425,65.642768 41.7977622,65.9966945 C42.5223259,66.5347879 42.9296808,67.2694695 42.9447904,68.0655401 C42.9525079,68.4777713 42.5897844,68.8188539 42.1362173,68.8259096 L42.1362173,68.8259096 L42.1218051,68.8259941 C41.6759555,68.8259941 41.3070487,68.4964034 41.2994707,68.0911857 C41.2929154,67.7422869 41.1000704,67.4096966 40.7565942,67.1546768 C40.5589141,67.0078588 40.3208332,66.8938266 40.0612734,66.8209035 L40.0612734,66.8209035 L40.0612734,69.5294108 C40.8848631,69.6886081 41.4055633,69.9315021 41.5493138,70.0042562 C42.6680289,70.5712907 43.3478682,71.5438809 43.3679523,72.6059984 C43.3763207,73.0472975 43.2725991,73.4761751 43.0596699,73.8806746 C42.8592468,74.2611762 42.5715134,74.6022588 42.2044198,74.8944583 C41.6156566,75.3632198 40.8771921,75.6664465 40.0630401,75.7746905 L40.0630401,75.7746905 L40.0738725,76.3447669 C40.0776383,76.5444817 39.9955815,76.7335495 39.8428583,76.8771565 C39.690135,77.0208058 39.4850163,77.1017564 39.2652529,77.1052632 L39.2652529,77.1052632 L39.2509802,77.1052632 C38.8051771,77.1052632 38.4362703,76.7756725 38.4285992,76.3705393 L38.4285992,76.3705393 L38.4163256,75.71947 C37.7857669,75.5903124 37.2020247,75.3356307 36.72312,74.9799297 C36.3452404,74.6993488 36.0447685,74.3674767 35.8301191,73.9934815 C35.6020338,73.5959955 35.4821333,73.1705823 35.4738114,72.7291988 C35.4699991,72.5295263 35.5520094,72.3404585 35.7047326,72.1968514 C35.8574559,72.0532021 36.0625281,71.9722093 36.2822915,71.9687448 L36.2822915,71.9687448 L36.2967037,71.9686603 C36.7425068,71.9686603 37.1113671,72.2982932 37.1189917,72.7035109 C37.1309864,73.3382718 37.6638208,73.9165869 38.460864,74.1770991 L38.460864,74.1770991 L38.460864,70.8271554 C37.9891189,70.7524578 37.3461471,70.6042455 36.832746,70.2170684 L36.832746,70.2170684 C36.1312419,69.6776231 35.7401124,68.9551517 35.7254212,68.1781358 C35.710451,67.3821075 36.0897719,66.6350889 36.7936005,66.0747299 C37.2565123,65.706185 37.8306773,65.4459263 38.4592369,65.3190924 L38.4592369,65.3190924 L38.4476606,64.7079069 C38.4398966,64.2956757 38.8026201,63.9545509 39.2562337,63.9473684 L39.2562337,63.9473684 Z M61.6402194,71.0696692 L61.6402194,74.2539092 C62.6248546,74.042618 63.315759,73.3761698 63.3016257,72.6316863 C63.2919091,72.1086761 62.9275118,71.6146915 62.3269396,71.310324 C62.3156887,71.3046203 62.0721683,71.1823917 61.6402194,71.0696692 L61.6402194,71.0696692 Z M40.0612734,71.0696692 L40.0612734,74.2539092 C41.0458618,74.042618 41.7368124,73.3761698 41.7227256,72.6316863 C41.7129624,72.1086761 41.3485653,71.6146915 40.7479933,71.310324 C40.7367425,71.3046203 40.4932221,71.1823917 40.0612734,71.0696692 L40.0612734,71.0696692 Z M60.0398093,66.8777294 C59.82158,66.9569901 59.6259919,67.064896 59.4568108,67.1995884 C59.1231441,67.4651283 58.9430375,67.8035491 58.9495928,68.1524901 C58.956055,68.4913335 59.139416,68.8168681 59.4659695,69.0689304 C59.5920534,69.1632319 59.7808538,69.239028 60.0398093,69.2986847 L60.0398093,69.2986847 Z M38.460864,66.8777294 C38.2425884,66.9569901 38.0470003,67.064896 37.8778658,67.1995461 C37.5441992,67.4651705 37.3640462,67.8035914 37.3706014,68.1524901 C37.3770637,68.4913335 37.5604711,68.8168681 37.887071,69.0689304 C38.0131083,69.1632319 38.2019087,69.239028 38.460864,69.2986847 L38.460864,69.2986847 Z M50.4736842,40.7894737 C51.7879792,40.7894737 53.0632128,41.0469738 54.2639461,41.5549036 C55.4233922,42.0453322 56.4646504,42.7472599 57.3586974,43.641309 C58.2526572,44.535358 58.954627,45.5766185 59.4451418,46.7360672 C59.9529832,47.9367596 60.2105263,49.2119961 60.2105263,50.5263813 C60.2105263,51.8406792 59.9529832,53.1159156 59.4451418,54.3165207 C58.9545834,55.4761876 58.2526135,56.5174045 57.3586974,57.4113226 C56.4647377,58.3052407 55.4235231,59.0072121 54.2639461,59.4976843 C53.0631691,60.0056142 51.7878919,60.2631579 50.4736842,60.2631579 C49.1594765,60.2631579 47.8842429,60.0056142 46.683466,59.4976843 C45.5238017,59.0071685 44.4825871,58.3051971 43.5887147,57.4113226 C42.6947986,56.5173608 41.9928287,55.476144 41.502314,54.3165207 C40.9943853,53.1156538 40.7368421,51.8404609 40.7368421,50.5263813 C40.7368421,49.2122143 40.9943853,47.9370215 41.502314,46.7360672 C41.9927414,45.5766185 42.6947113,44.535358 43.5887147,43.641309 C44.482718,42.7473036 45.5239326,42.0453322 46.683466,41.5549036 C47.8841993,41.0469738 49.1593892,40.7894737 50.4736842,40.7894737 Z M50.4736842,42.2236182 C45.8956048,42.2236182 42.1710707,45.9482043 42.1710707,50.5263813 C42.1710707,55.104471 45.8956048,58.8290133 50.4736842,58.8290133 C55.0517637,58.8290133 58.7763413,55.104471 58.7763413,50.5263813 C58.7763413,45.9482043 55.0517637,42.2236182 50.4736842,42.2236182 Z M49.796867,44.4736842 C50.2427168,44.4736842 50.6116237,44.8033171 50.6192948,45.2085348 L50.6192948,45.2085348 L50.6307781,45.8197203 C51.263708,45.926908 51.8474039,46.1690838 52.3241237,46.5230103 C53.0486412,47.0611037 53.4559962,47.7958275 53.4711523,48.5918559 C53.4788234,49.0040871 53.1160998,49.3451696 52.6625325,49.3522254 L52.6625325,49.3522254 L52.6481667,49.3523099 C52.2022705,49.3523099 51.8333636,49.0227192 51.8257855,48.6175015 C51.8192303,48.2686027 51.6264316,47.9360124 51.2829088,47.6809926 C51.0852751,47.5341746 50.8471477,47.4201424 50.5875878,47.3472193 L50.5875878,47.3472193 L50.5875878,50.0557266 C51.4111778,50.2149238 51.9319247,50.4578179 52.0756287,50.530572 C53.1943908,51.0976065 53.8742303,52.0702389 53.8942679,53.1323142 C53.9026363,53.5736132 53.7989612,54.0024909 53.5859854,54.4069904 C53.3855622,54.787492 53.0978752,55.1285746 52.7307814,55.4207741 C52.142018,55.8895356 51.4035533,56.1927623 50.589401,56.3010063 L50.589401,56.3010063 L50.6002334,56.8710827 C50.6039527,57.0707975 50.5218959,57.2599075 50.3692191,57.4034723 C50.2164958,57.5471216 50.0113305,57.6280722 49.7916135,57.6315789 L49.7916135,57.6315789 L49.7772943,57.6315789 C49.3315375,57.6315789 48.9626306,57.3019883 48.9549596,56.8968551 L48.9549596,56.8968551 L48.9426859,56.245828 C48.312127,56.1166282 47.7283846,55.8619464 47.2494797,55.5062454 C46.8715535,55.2256646 46.571128,54.8937925 46.3564785,54.5197973 C46.1283466,54.1223113 46.0084461,53.6968981 46.0001242,53.2555146 C45.9963584,53.0558421 46.0783687,52.8667742 46.2310455,52.7231672 C46.3837688,52.5795179 46.5888876,52.4985251 46.8086045,52.4950606 L46.8086045,52.4950606 L46.8230168,52.4949761 C47.26882,52.4949761 47.637727,52.8246089 47.6453515,53.2298267 C47.6573462,53.8645876 48.1901343,54.4429027 48.9872244,54.7034149 L48.9872244,54.7034149 L48.9872244,51.3534712 C48.5154326,51.2787736 47.8724606,51.1305613 47.3590593,50.7433842 L47.3590593,50.7433842 L47.3517602,50.7376805 C46.6575549,50.2039389 46.2664717,49.4814675 46.251734,48.7044516 C46.2367639,47.9084232 46.6161313,47.1614047 47.3199138,46.6010457 C47.7828722,46.2325008 48.3569909,45.9722421 48.9855507,45.8454082 L48.9855507,45.8454082 L48.9740209,45.2342227 C48.9662569,44.8219915 49.3289805,44.4808667 49.7825478,44.4736842 L49.7825478,44.4736842 Z M33.3681203,54.4736842 L33.4911003,54.4791314 C34.0145305,54.5259017 34.4208206,54.8681276 34.4209323,55.2834649 L34.4209323,55.2834649 L34.4210526,55.7687964 C34.421233,56.216129 33.9500419,56.5788548 33.3687218,56.5789474 L33.3687218,56.5789474 L33.2457537,56.5735002 C32.7223714,56.5267298 32.3160773,56.1845039 32.3159098,55.7691667 L32.3159098,55.7691667 L32.3157895,55.2838352 C32.3156692,54.8365026 32.7868002,54.4737768 33.3681203,54.4736842 L33.3681203,54.4736842 Z M50.5875878,51.595985 L50.5875878,54.780225 C51.572223,54.5689338 52.2631739,53.9024856 52.2490406,53.1580021 C52.2393239,52.6349919 51.8749266,52.1410073 51.274308,51.8366398 C51.2631036,51.8309361 51.0195367,51.7087075 50.5875878,51.595985 L50.5875878,51.595985 Z M38.9756979,34.5697813 C39.379032,34.3632158 39.885807,34.5006598 40.107405,34.8766774 C40.3290507,35.2527394 40.1816044,35.725092 39.7781751,35.9316575 L39.7781751,35.9316575 L39.6709718,35.9865286 C37.1331913,37.2852321 34.5089718,38.6281521 34.5089718,41.8931124 C34.5089718,41.9280949 34.5104958,41.9626335 34.5119722,41.9971277 C34.5135438,42.032199 34.5125437,42.0673147 34.5089718,42.1022084 L34.5089718,42.1022084 L34.5089718,51.5915252 C34.5089718,52.0205937 34.1358318,52.3684211 33.6755385,52.3684211 C33.2152452,52.3684211 32.8421053,52.0205937 32.8421053,51.5915252 L32.8421053,51.5915252 L32.8427422,42.0554559 L32.8427422,42.0554559 L32.8446294,42.0146633 C32.8432006,41.9773279 32.8421053,41.9363522 32.8421053,41.8931124 C32.8421053,40.019728 33.5242347,38.4662026 34.9275458,37.1437039 C36.0937809,36.044596 37.5680529,35.2901191 38.8687803,34.6245192 L38.8687803,34.6245192 Z M48.9872244,47.4040452 C48.7689021,47.4833058 48.5733605,47.5912118 48.4042259,47.7258619 C48.0705127,47.9914863 47.8903597,48.3299072 47.8969614,48.6788059 C47.9034237,49.0176915 48.0868311,49.3431839 48.4133846,49.5952462 C48.5394685,49.6895477 48.7282224,49.7653438 48.9872244,49.8250005 L48.9872244,49.8250005 Z M65.7509748,15 C66.1791845,15 66.5263158,15.3423641 66.5263158,15.7646933 L66.5263158,15.7646933 L66.5263158,22.1300436 C66.5263158,22.5523727 66.1791845,22.8947368 65.7509748,22.8947368 L65.7509748,22.8947368 L34.6700779,22.8947368 C34.2418681,22.8947368 33.8947368,22.5523727 33.8947368,22.1300436 L33.8947368,22.1300436 L33.8947368,15.7646933 C33.8947368,15.3423641 34.2418681,15 34.6700779,15 L34.6700779,15 Z M64.9756337,16.5293865 L35.4454189,16.5293865 L35.4454189,21.3653066 L64.9756337,21.3653066 L64.9756337,16.5293865 Z" id="Combined-Shape" fill="#00865A"></path>
            </g>
        </g>
    </g>
</svg>