<svg width="21" height="20" viewBox="0 0 21 20" fill="none" xmlns="http://www.w3.org/2000/svg">
<g clip-path="url(#clip0_4607_36)">
<mask id="mask0_4607_36" style="mask-type:luminance" maskUnits="userSpaceOnUse" x="0" y="0" width="21" height="20">
<path d="M20.5 0H0.5V20H20.5V0Z" fill="white"/>
</mask>
<g mask="url(#mask0_4607_36)">
<path d="M0.504557 8.71332C0.46112 9.06287 0.733737 9.37152 1.086 9.37152H3.46983C3.75596 9.37152 4.00026 9.16482 4.04764 8.88262C4.50643 6.15037 6.65032 4.00643 9.38257 3.54768C9.66477 3.5003 9.87147 3.256 9.87147 2.96983V0.586001C9.87147 0.233737 9.56287 -0.0388802 9.21327 0.00455726C7.01522 0.277721 4.93873 1.29409 3.36639 2.86639C1.79409 4.43874 0.777721 6.51522 0.504557 8.71332Z" fill="#92CDD2"/>
<path d="M14.2334 15.2609C13.1213 16.055 11.8173 16.4747 10.4623 16.4747C7.274 16.4747 4.57627 14.1899 4.04768 11.0419C4.0003 10.7597 3.756 10.553 3.46987 10.553H1.086C0.733737 10.553 0.46112 10.8616 0.504557 11.2112C1.12725 16.2216 5.40815 20 10.4623 20C12.7139 20 14.8432 19.2692 16.6201 17.8865C16.8982 17.6701 16.9237 17.259 16.6745 17.0098L14.9882 15.3235C14.7857 15.121 14.4665 15.0945 14.2334 15.2609Z" fill="#92CDD2"/>
<path d="M11.5419 3.54768C14.6899 4.07627 16.9747 6.77403 16.9747 9.96233C16.9747 11.3173 16.555 12.6213 15.761 13.7334C15.5945 13.9665 15.621 14.2857 15.8235 14.4882L17.5099 16.1746C17.7591 16.4238 18.1702 16.3982 18.3866 16.1201C19.7691 14.3433 20.5 12.2139 20.5 9.96233C20.5 4.90815 16.7216 0.627255 11.7112 0.00455727C11.3617 -0.0388803 11.053 0.233737 11.053 0.586005V2.96983C11.053 3.256 11.2597 3.5003 11.5419 3.54768Z" fill="#92CDD2"/>
<path d="M10.8525 5.9361H10.0708C9.74721 5.9361 9.48486 6.19845 9.48486 6.52205V13.3579H11.4385V6.52205C11.4385 6.19845 11.1761 5.9361 10.8525 5.9361Z" fill="#92CDD2"/>
<path d="M12.6104 13.3579H13.9781C14.3016 13.3579 14.564 13.0955 14.564 12.7719V8.08449C14.564 7.76089 14.3016 7.49854 13.9781 7.49854H12.6104V13.3579Z" fill="#92CDD2"/>
<path d="M8.31299 9.06104H6.94679C6.62319 9.06104 6.36084 9.32339 6.36084 9.64699V12.7719C6.36084 13.0955 6.62319 13.3579 6.94679 13.3579H8.31299V9.06104Z" fill="#92CDD2"/>
</g>
</g>
<defs>
<clipPath id="clip0_4607_36">
<rect width="20" height="20" fill="white" transform="translate(0.5)"/>
</clipPath>
</defs>
</svg>
