<svg width="21" height="20" viewBox="0 0 21 20" fill="none" xmlns="http://www.w3.org/2000/svg">
<g clip-path="url(#clip0_4607_54)">
<mask id="mask0_4607_54" style="mask-type:luminance" maskUnits="userSpaceOnUse" x="0" y="0" width="21" height="20">
<path d="M20.5 0H0.5V20H20.5V0Z" fill="white"/>
</mask>
<g mask="url(#mask0_4607_54)">
<path d="M5.51483 10.608H4.61792C4.38263 10.608 4.17022 10.7481 4.07715 10.9639L1.59424 16.7453L7.49083 13.7336C6.78498 12.7569 6.08658 11.6797 5.51483 10.608Z" fill="#92CDD2"/>
<path d="M16.9227 10.9639C16.8298 10.7481 16.6172 10.608 16.3821 10.608H15.4852C14.4055 12.6314 12.8324 14.7223 11.8318 15.8726C11.128 16.6798 9.87101 16.6789 9.16831 15.8726C9.09646 15.7901 8.72126 15.3557 8.20441 14.6876L7.14136 15.2308L11.1627 19.2444L18.7823 15.2942L16.9227 10.9639Z" fill="#92CDD2"/>
<path d="M0.868803 18.4349L0.548063 19.1818C0.382048 19.5684 0.666472 20 1.08868 20H9.7235C9.7775 19.9599 9.7781 19.9623 10.068 19.812L6.04075 15.7932L0.868803 18.4349Z" fill="#92CDD2"/>
<path d="M20.4519 19.1818L19.2471 16.3763L12.2573 20H19.9113C20.3326 20 20.6182 19.5691 20.4519 19.1818Z" fill="#92CDD2"/>
<path d="M11.0884 5.2861C11.0884 4.96231 10.8244 4.6991 10.5001 4.6991C10.1757 4.6991 9.91187 4.96231 9.91187 5.2861C9.91187 5.60975 10.1757 5.8731 10.5001 5.8731C10.8244 5.8731 11.0884 5.60975 11.0884 5.2861Z" fill="#92CDD2"/>
<path d="M10.9438 15.0632C11.1419 14.8358 15.7938 9.45467 15.7938 5.75562C15.7938 -1.87193 5.20605 -1.96501 5.20605 5.75562C5.20605 9.45467 9.85799 14.8358 10.056 15.0632C10.2906 15.3322 10.7097 15.3319 10.9438 15.0632ZM8.73524 5.28612C8.73524 4.31505 9.52689 3.5251 10.4999 3.5251C11.4728 3.5251 12.2645 4.31505 12.2645 5.28612C12.2645 6.25702 11.4728 7.04697 10.4999 7.04697C9.52689 7.04697 8.73524 6.25702 8.73524 5.28612Z" fill="#92CDD2"/>
</g>
</g>
<defs>
<clipPath id="clip0_4607_54">
<rect width="20" height="20" fill="white" transform="translate(0.5)"/>
</clipPath>
</defs>
</svg>
