<svg width="20" height="16" viewBox="0 0 20 16" fill="none" xmlns="http://www.w3.org/2000/svg">
<g clip-path="url(#clip0_4607_65)">
<path d="M19.668 11.4099C19.5224 11.0606 19.2448 10.7829 18.8954 10.6374V5.62697C18.9622 5.52703 19.0073 5.41424 19.0279 5.29585C19.0263 5.07097 18.8983 4.86611 18.6968 4.76611L9.73537 0.748929C9.59587 0.681591 9.43337 0.681591 9.29391 0.748929L0.332467 4.76611C0.118639 4.85192 -0.0151755 5.06608 0.00137884 5.29585C0.00340501 5.52357 0.156792 5.72204 0.376613 5.78147L3.4447 6.84093V10.814C3.4447 10.9877 3.52648 11.1513 3.66543 11.2554C3.81203 11.3633 4.00371 11.3883 4.17308 11.3217C7.61143 10.0412 11.3957 10.0412 14.8341 11.3217L15.0328 11.3658C15.1448 11.3626 15.253 11.324 15.3418 11.2554C15.4951 11.1617 15.5875 10.9938 15.5846 10.814V6.81887L17.7918 6.09049V10.6374C17.0604 10.9421 16.7145 11.7822 17.0193 12.5136C17.324 13.245 18.164 13.5909 18.8954 13.2861C19.6269 12.9813 19.9727 12.1413 19.668 11.4099Z" fill="#92CDD2"/>
<path fill-rule="evenodd" clip-rule="evenodd" d="M8.46679 15.1888C6.34272 14.9023 4.56777 13.9244 3.56323 13.0921L4.37339 12.1143C5.22069 12.8164 6.77907 13.6798 8.63653 13.9304C10.4705 14.1777 12.6027 13.8308 14.6743 12.1143L15.4845 13.0921C13.1117 15.0582 10.6143 15.4784 8.46679 15.1888Z" fill="#92CDD2"/>
</g>
<defs>
<clipPath id="clip0_4607_65">
<rect width="20" height="14.6032" fill="white" transform="translate(0 0.698425)"/>
</clipPath>
</defs>
</svg>
