<svg width="21" height="20" viewBox="0 0 21 20" fill="none" xmlns="http://www.w3.org/2000/svg">
<path d="M3.65625 13.625C3.03125 12.6562 2.6875 11.4687 2.6875 10.2187C2.6875 9.15624 3.125 8.15624 3.75 7.34374C4.3125 6.59374 5 5.93749 5.625 5.49999C5.5625 5.12499 5.40625 4.62499 5.1875 4.15624C4.90625 3.56249 4.5 3.09374 4 2.87499C3.84375 2.81249 3.75 2.62499 3.8125 2.46874C3.875 2.31249 4.0625 2.21874 4.21875 2.28124C4.9375 2.56249 5.4375 3.21874 5.75 3.87499C5.84375 4.06249 5.9375 4.28124 6 4.46874L6.5 1.53124C6.6875 0.46874 8.1875 0.499989 8.34375 1.56249L8.78125 4.43749C8.84375 4.24999 8.9375 4.06249 9 3.87499C9.3125 3.21874 9.8125 2.56249 10.5312 2.28124C10.6875 2.21874 10.875 2.28124 10.9375 2.46874C11 2.62499 10.9375 2.81249 10.75 2.87499C10.2188 3.09374 9.84375 3.56249 9.5625 4.15624C9.34375 4.62499 9.1875 5.12499 9.125 5.49999C9.75 5.96874 10.4375 6.59374 11 7.34374C11.5938 8.15624 12.0625 9.15624 12.0625 10.2187C12.0625 10.7812 12 11.3125 11.875 11.8125C11.8438 11.875 11.8438 11.9687 11.8125 12.0312L10.8125 12.2187L10.1875 12.3437L4.71875 13.4062L4.09375 13.5312L3.65625 13.625ZM19.8125 16.5625C19.3438 16 18.6875 15.6562 18.0625 15.4687C17.875 15.4062 17.6875 15.375 17.5 15.3125C18.1562 15 18.9062 14.25 19.5625 12.8125C19.625 12.6562 19.5625 12.4687 19.4062 12.4062C19.25 12.3437 19.0625 12.4062 19 12.5625C18.1562 14.4375 17.25 14.8437 16.7812 14.875V14.375C16.7812 14 16.5625 13.6562 16.3125 13.4062C16.0938 13.1875 15.8125 13 15.5 12.875C15.4375 12.8437 15.375 12.8125 15.3125 12.7812C14.8125 12.5625 14.1875 12.4062 13.6562 12.375C13.4375 12.375 13.2188 12.375 13.0312 12.4062C13 12.4062 13 12.4062 12.9688 12.4062L2.125 14.5625C2.09375 14.5625 2.03125 14.5937 2 14.5937C1.4375 14.7187 1.125 15.1875 1.125 15.6875C1.125 15.75 1.125 15.8125 1.15625 15.875C1.21875 16.3125 1.5625 16.7187 2.125 16.8125L12.9375 18.9062C13.0312 18.9375 13.0938 18.9375 13.1875 18.9375C13.8125 19 14.625 18.8437 15.2812 18.5625C15.6562 18.4062 16.0312 18.1875 16.2812 17.9375C16.5312 17.6875 16.75 17.3437 16.75 16.9687V16C17.3438 16.3437 18.1875 17.1875 18.3125 19C18.3125 19.1875 18.4688 19.3125 18.6562 19.2812C18.8438 19.2812 18.9688 19.125 18.9375 18.9375C18.8438 17.5625 18.375 16.6562 17.8438 16.0625H17.875C18.4375 16.25 18.9688 16.5312 19.3438 16.9687C19.4688 17.0937 19.6562 17.125 19.7812 17C19.9062 16.875 19.9062 16.7187 19.8125 16.5625ZM9.46875 4.90624V4.96874C10.1562 5.46874 10.875 6.15624 11.5 6.96874C11.6562 7.18749 11.8125 7.43749 11.9688 7.68749C12.375 7.59374 13.3438 7.40624 13.6875 7.31249C14.25 7.15624 14.8438 6.93749 15.4062 6.68749C15.2812 6.53124 15.1562 6.31249 15.0312 6.12499C14.9375 5.93749 14.8438 5.74999 14.8125 5.56249C14.7812 5.37499 14.7812 5.15624 14.875 4.93749C14.9375 4.78124 15.125 4.71874 15.2812 4.81249C15.4375 4.87499 15.5 5.06249 15.4062 5.21874C15.375 5.24999 15.375 5.34374 15.4062 5.43749C15.4375 5.56249 15.4688 5.68749 15.5625 5.84374C15.6562 6.03124 15.8125 6.24999 15.9375 6.40624C16.625 5.99999 17.0625 5.53124 17.1875 5.03124C17.2188 4.87499 17.4062 4.74999 17.5625 4.81249C17.7188 4.84374 17.8438 5.03124 17.7812 5.18749C17.5938 6.03124 16.8125 6.65624 16 7.12499C15.625 7.34374 15.1875 7.53124 14.7812 7.68749L16.3125 8.12499C16.4688 8.18749 16.5625 8.34374 16.5312 8.49999C16.4688 8.65624 16.3125 8.74999 16.1562 8.71874L13.75 8.03124C13.375 8.12499 12.6875 8.28124 12.25 8.37499C12.5 8.96874 12.6562 9.62499 12.6562 10.3125C12.6562 10.875 12.5938 11.4375 12.4688 12L12.8125 11.9375C13.6562 11.7812 14.6875 11.9687 15.5312 12.3437C15.625 12.375 15.7188 12.4375 15.7812 12.4687C15.9688 12.2187 16.3125 11.8437 17.1875 11.4062C17.8438 11.0937 18.2812 10.75 18.625 10.4062C18.9375 10.0625 19.125 9.68749 19.25 9.28124C19.3438 8.93749 19.375 8.56249 19.4375 8.18749C19.4375 8.12499 19.4375 8.09374 19.4688 8.03124C19.5312 7.59374 19.5938 7.09374 19.75 6.53124C19.9062 5.93749 19.9375 5.46874 19.8125 5.09374C19.6875 4.71874 19.4062 4.49999 19.0938 4.37499C18.9375 4.31249 18.7812 4.24999 18.625 4.21874C18.5938 4.21874 18.5312 4.18749 18.5 4.18749C18.375 4.15624 18.2812 4.12499 18.1562 4.06249C17.8438 3.93749 17.5312 3.81249 17.2812 3.56249C16.875 3.21874 16.4688 3.15624 16.0312 3.21874C15.625 3.28124 15.2188 3.46874 14.875 3.65624C14.8125 3.68749 14.7812 3.71874 14.75 3.71874C14.4375 3.87499 14.125 4.03124 13.8438 4.12499C13.5312 4.21874 13.25 4.24999 13 4.12499C12.6562 3.96874 12.25 3.96874 11.8438 3.99999C11.4688 4.06249 11.0625 4.18749 10.6562 4.37499C10.25 4.43749 9.84375 4.65624 9.46875 4.90624Z" fill="#92CDD2"/>
</svg>
