<svg width="21" height="20" viewBox="0 0 21 20" fill="none" xmlns="http://www.w3.org/2000/svg">
<g clip-path="url(#clip0_4607_70)">
<mask id="mask0_4607_70" style="mask-type:luminance" maskUnits="userSpaceOnUse" x="0" y="0" width="21" height="20">
<path d="M20.5 0H0.5V20H20.5V0Z" fill="white"/>
</mask>
<g mask="url(#mask0_4607_70)">
<path d="M16.1002 1.06439H9.95945C9.5708 1.06439 9.19755 1.21912 8.92255 1.49411L0.929534 9.4857C0.356822 10.0584 0.356822 10.9868 0.929534 11.5602L7.07025 17.7009C7.64295 18.2736 8.5713 18.2736 9.14405 17.7009L17.1371 9.70935C17.4121 9.4336 17.5668 9.06035 17.5668 8.67095V2.53101C17.5668 1.7207 16.9105 1.06439 16.1002 1.06439ZM13.5336 6.19755C12.9264 6.19755 12.4337 5.70475 12.4337 5.09755C12.4337 4.4904 12.9264 3.99762 13.5336 3.99762C14.1407 3.99762 14.6335 4.4904 14.6335 5.09755C14.6335 5.70475 14.1407 6.19755 13.5336 6.19755Z" fill="#92CDD2"/>
<path d="M19.0335 2.53101L19.0327 9.35735C19.0327 9.6954 18.8985 10.0203 18.6587 10.2593L10.5366 18.3814L10.6613 18.5061C11.234 19.0788 12.1624 19.0788 12.7351 18.5061L20.0696 11.173C20.3453 10.8981 20.5001 10.5248 20.5001 10.1361V3.99762C20.5001 3.18732 19.8438 2.53101 19.0335 2.53101Z" fill="#92CDD2"/>
</g>
</g>
<defs>
<clipPath id="clip0_4607_70">
<rect width="20" height="20" fill="white" transform="translate(0.5)"/>
</clipPath>
</defs>
</svg>
