<svg width="20" height="22" viewBox="0 0 20 22" fill="none" xmlns="http://www.w3.org/2000/svg">
<g clip-path="url(#clip0_4607_77)">
<path d="M19.3657 8.93708H0.356787C0.313748 8.93708 0.27113 8.94559 0.231367 8.96205C0.191603 8.97851 0.155473 9.00267 0.12504 9.03308C0.0946067 9.06354 0.0704651 9.09964 0.0539949 9.13944C0.0375244 9.17918 0.029047 9.2218 0.029047 9.26482V17.95C-0.0344711 18.3951 0.00651364 18.849 0.148757 19.2756C0.291 19.7022 0.530595 20.0898 0.84858 20.4078C1.16656 20.7258 1.55419 20.9654 1.9808 21.1076C2.40741 21.2499 2.86127 21.2909 3.30645 21.2274H16.4161C16.8612 21.2909 17.3151 21.2499 17.7417 21.1076C18.1683 20.9654 18.5559 20.7258 18.8739 20.4078C19.1919 20.0898 19.4315 19.7022 19.5737 19.2756C19.716 18.849 19.757 18.3951 19.6935 17.95V9.26482C19.6935 9.2218 19.685 9.17918 19.6685 9.13944C19.6521 9.09964 19.6279 9.06354 19.5975 9.03308C19.567 9.00267 19.5309 8.97851 19.4911 8.96205C19.4514 8.94559 19.4088 8.93708 19.3657 8.93708ZM13.556 14.2181L12.1784 15.529C12.129 15.5758 12.0919 15.6342 12.0706 15.6988C12.0492 15.7634 12.0443 15.8324 12.0561 15.8994L12.3707 17.6965C12.3835 17.7791 12.3732 17.8637 12.3409 17.9408C12.3086 18.018 12.2555 18.0846 12.1876 18.1334C12.1197 18.1822 12.0396 18.2112 11.9562 18.2172C11.8728 18.2232 11.7894 18.2059 11.7152 18.1674L10.0634 17.3174C10.0021 17.2863 9.93436 17.2701 9.86564 17.2701C9.79692 17.2701 9.72918 17.2863 9.6679 17.3174L8.01718 18.1674C7.94272 18.2085 7.85815 18.2279 7.77323 18.2233C7.68826 18.2188 7.60631 18.1905 7.53662 18.1416C7.46697 18.0928 7.41241 18.0254 7.37918 17.9471C7.3459 17.8688 7.33533 17.7827 7.34856 17.6987L7.66323 15.9027C7.67503 15.8356 7.67 15.7667 7.64867 15.7021C7.62728 15.6375 7.59026 15.5791 7.54087 15.5323L6.16323 14.2214C6.10641 14.1671 6.06615 14.0978 6.04713 14.0215C6.0281 13.9453 6.03113 13.8652 6.05585 13.7906C6.08056 13.716 6.12595 13.6499 6.18677 13.6001C6.24754 13.5502 6.32123 13.5187 6.39923 13.5091L8.30339 13.2382C8.37123 13.2288 8.4358 13.2032 8.49169 13.1637C8.54759 13.1242 8.59318 13.0717 8.62456 13.0109L9.44939 11.3722C9.48815 11.2973 9.54672 11.2344 9.61882 11.1905C9.69087 11.1467 9.77359 11.1234 9.858 11.1234C9.94236 11.1234 10.0251 11.1467 10.0972 11.1905C10.1692 11.2344 10.2278 11.2973 10.2666 11.3722L11.0914 13.0109C11.1228 13.0717 11.1684 13.1242 11.2243 13.1637C11.2802 13.2032 11.3447 13.2288 11.4126 13.2382L13.3167 13.5091C13.3944 13.5187 13.4676 13.55 13.5283 13.5993C13.5889 13.6488 13.6343 13.7143 13.6593 13.7884C13.6843 13.8625 13.6878 13.9421 13.6696 14.0181C13.6513 14.0942 13.6119 14.1634 13.556 14.2181ZM19.6935 6.47903V6.97067C19.6935 7.05759 19.6589 7.14092 19.5975 7.20241C19.536 7.26385 19.4527 7.29841 19.3657 7.29841H0.356787C0.269865 7.29841 0.186503 7.26385 0.12504 7.20241C0.0635769 7.14092 0.029047 7.05759 0.029047 6.97067V6.47903C-0.0344711 6.03385 0.00651364 5.58 0.148757 5.1534C0.291 4.72679 0.530595 4.33916 0.84858 4.02118C1.16656 3.70319 1.55419 3.4636 1.9808 3.32136C2.40741 3.17911 2.86127 3.13812 3.30645 3.20164H4.67204V1.56294C4.67204 1.34564 4.75836 1.13723 4.91202 0.983573C5.06568 0.829915 5.2741 0.743591 5.49139 0.743591C5.70867 0.743591 5.91708 0.829915 6.07077 0.983573C6.22441 1.13723 6.31072 1.34564 6.31072 1.56294V3.20164H13.4118V1.56294C13.4118 1.34564 13.4981 1.13723 13.6517 0.983573C13.8054 0.829915 14.0138 0.743591 14.2311 0.743591C14.4484 0.743591 14.6568 0.829915 14.8105 0.983573C14.9642 1.13723 15.0505 1.34564 15.0505 1.56294V3.20164H16.4161C16.8612 3.13812 17.3151 3.17911 17.7417 3.32136C18.1683 3.4636 18.5559 3.70319 18.8739 4.02118C19.1919 4.33916 19.4315 4.72679 19.5737 5.1534C19.716 5.58 19.757 6.03385 19.6935 6.47903Z" fill="#92CDD2"/>
</g>
<defs>
<clipPath id="clip0_4607_77">
<rect width="20" height="20.5128" fill="white" transform="translate(0 0.743591)"/>
</clipPath>
</defs>
</svg>
