<svg width="21" height="24" viewBox="0 0 21 24" fill="none" xmlns="http://www.w3.org/2000/svg">
<g clip-path="url(#clip0_4607_9)">
<path d="M10.2656 23.1111C11.5977 23.1111 12.7448 22.3064 13.2482 21.158H7.28296C7.78629 22.3064 8.93351 23.1111 10.2656 23.1111Z" fill="#92CDD2"/>
<path d="M16.9931 11.6468V10.2205C16.9931 7.19 14.9787 4.62148 12.2188 3.78255V2.84201C12.2188 1.76506 11.3426 0.888885 10.2657 0.888885C9.18872 0.888885 8.31256 1.76506 8.31256 2.84201V3.78255C5.55257 4.62148 3.53824 7.19 3.53824 10.2205V11.6468C3.53824 14.3088 2.52358 16.8329 0.681171 18.7543C0.500615 18.9426 0.449877 19.2203 0.552221 19.4603C0.654564 19.7002 0.890242 19.8559 1.15109 19.8559H19.3803C19.6411 19.8559 19.8767 19.7002 19.9791 19.4603C20.0814 19.2203 20.0307 18.9426 19.8502 18.7543C18.0078 16.8329 16.9931 14.3087 16.9931 11.6468ZM10.9167 3.52465C10.7024 3.50399 10.4853 3.49305 10.2657 3.49305C10.0461 3.49305 9.82889 3.50399 9.61461 3.52465V2.84201C9.61461 2.48302 9.90667 2.19097 10.2657 2.19097C10.6247 2.19097 10.9167 2.48302 10.9167 2.84201V3.52465Z" fill="#92CDD2"/>
<path d="M18.7292 10.2205C18.7292 10.58 19.0207 10.8715 19.3802 10.8715C19.7398 10.8715 20.0312 10.58 20.0312 10.2205C20.0312 7.61199 19.0154 5.15958 17.1709 3.31509C16.9168 3.06089 16.5045 3.06084 16.2503 3.31509C15.996 3.56935 15.996 3.98154 16.2503 4.2358C17.8488 5.83436 18.7292 7.95977 18.7292 10.2205Z" fill="#92CDD2"/>
<path d="M1.15104 10.8715C1.51059 10.8715 1.80208 10.58 1.80208 10.2205C1.80208 7.95983 2.68247 5.83441 4.28099 4.23584C4.53524 3.98159 4.53524 3.56939 4.28099 3.31514C4.02678 3.06089 3.61454 3.06089 3.36029 3.31514C1.5158 5.15963 0.5 7.61199 0.5 10.2205C0.5 10.58 0.791493 10.8715 1.15104 10.8715Z" fill="#92CDD2"/>
</g>
<defs>
<clipPath id="clip0_4607_9">
<rect width="20" height="22.2222" fill="white" transform="translate(0.5 0.888885)"/>
</clipPath>
</defs>
</svg>
