<svg width="20" height="26" viewBox="0 0 20 26" fill="none" xmlns="http://www.w3.org/2000/svg">
<g clip-path="url(#clip0_4607_14)">
<path fill-rule="evenodd" clip-rule="evenodd" d="M19.7321 2.85199V24.2754C19.7321 24.5888 19.5584 24.8764 19.2811 25.023C19.0037 25.1696 18.6688 25.1504 18.4095 24.9733L15.5962 23.0531L12.9364 24.9621C12.6173 25.1921 12.182 25.1707 11.8866 24.9113L9.86606 23.1445L7.84545 24.9113C7.55006 25.1707 7.11485 25.1921 6.79576 24.9621L4.13584 23.0531L1.32261 24.9733C1.06328 25.1504 0.728394 25.1696 0.451019 25.023C0.173642 24.8764 0 24.5888 0 24.2754V2.85199C0 1.76278 0.882873 0.878784 1.97321 0.878784H17.7588C18.8492 0.878784 19.7321 1.76278 19.7321 2.85199ZM5.35585 11.5905H14.3762C14.843 11.5905 15.2219 11.2116 15.2219 10.7448C15.2219 10.278 14.843 9.89915 14.3762 9.89915H5.35585C4.88905 9.89915 4.51019 10.278 4.51019 10.7448C4.51019 11.2116 4.88905 11.5905 5.35585 11.5905ZM5.35585 7.0803H14.3762C14.843 7.0803 15.2219 6.70144 15.2219 6.23463C15.2219 5.76783 14.843 5.38897 14.3762 5.38897H5.35585C4.88905 5.38897 4.51019 5.76783 4.51019 6.23463C4.51019 6.70144 4.88905 7.0803 5.35585 7.0803ZM5.35585 16.1007H9.86606C10.3328 16.1007 10.7117 15.7218 10.7117 15.255C10.7117 14.7882 10.3328 14.4093 9.86606 14.4093H5.35585C4.88905 14.4093 4.51019 14.7882 4.51019 15.255C4.51019 15.7218 4.88905 16.1007 5.35585 16.1007Z" fill="#92CDD2"/>
</g>
<defs>
<clipPath id="clip0_4607_14">
<rect width="20" height="24.2424" fill="white" transform="translate(0 0.878784)"/>
</clipPath>
</defs>
</svg>
