<svg width="21" height="20" viewBox="0 0 21 20" fill="none" xmlns="http://www.w3.org/2000/svg">
<g clip-path="url(#clip0_4607_16)">
<path d="M19.3067 7.1905C18.9177 7.134 18.5464 6.9905 18.2206 6.7706C17.8947 6.55075 17.6226 6.26015 17.4247 5.9206C17.2267 5.581 17.1078 5.20111 17.077 4.80923C17.0462 4.41735 17.1042 4.02356 17.2467 3.65719C17.3373 3.41768 17.3505 3.15582 17.2848 2.90834C17.219 2.66086 17.0775 2.44016 16.88 2.27719C16.008 1.54497 15.0155 0.969755 13.9466 0.577193C13.7033 0.486781 13.4375 0.475485 13.1874 0.544913C12.9372 0.614342 12.7153 0.760953 12.5534 0.963859C12.3095 1.27563 11.9979 1.52778 11.6421 1.7012C11.2864 1.87462 10.8958 1.96475 10.5 1.96475C10.1042 1.96475 9.71365 1.87462 9.35785 1.7012C9.0021 1.52778 8.6905 1.27563 8.4467 0.963859C8.2847 0.760953 8.0628 0.614342 7.8126 0.544913C7.56245 0.475485 7.29675 0.486781 7.05335 0.577193C6.06645 0.939621 5.14373 1.45724 4.32001 2.11053C4.11237 2.2749 3.96281 2.50143 3.89323 2.75696C3.82366 3.01248 3.83772 3.28356 3.93335 3.53052C4.08718 3.90658 4.15074 4.31346 4.11893 4.71852C4.08711 5.12359 3.9608 5.51555 3.75014 5.863C3.53948 6.2104 3.25033 6.50365 2.90587 6.7191C2.56142 6.9346 2.17125 7.0664 1.76668 7.10385C1.50402 7.13195 1.25731 7.2436 1.06289 7.42245C0.868462 7.60125 0.736588 7.8378 0.686681 8.0972C0.562546 8.71165 0.500014 9.33695 0.500014 9.96385C0.499102 10.4887 0.541468 11.0127 0.626681 11.5305C0.669091 11.7983 0.798512 12.0445 0.994934 12.2313C1.19135 12.4181 1.44384 12.535 1.71335 12.5639C2.12681 12.6027 2.52497 12.74 2.87448 12.9642C3.224 13.1885 3.51472 13.4931 3.7223 13.8528C3.92988 14.2125 4.04829 14.6167 4.06761 15.0315C4.08693 15.4463 4.00659 15.8597 3.83334 16.2372C3.71996 16.4826 3.69184 16.759 3.75344 17.0223C3.81503 17.2856 3.96283 17.5208 4.17335 17.6905C5.04009 18.4095 6.02305 18.9753 7.08 19.3638C7.21515 19.4106 7.357 19.4354 7.5 19.4372C7.6961 19.4368 7.88925 19.3893 8.06325 19.2988C8.23725 19.2083 8.38705 19.0775 8.5 18.9172C8.7376 18.571 9.05615 18.288 9.4279 18.0928C9.79965 17.8976 10.2135 17.7962 10.6334 17.7972C11.0402 17.7977 11.4412 17.8932 11.8047 18.076C12.1681 18.2589 12.4838 18.5241 12.7267 18.8505C12.8882 19.0677 13.117 19.2253 13.3775 19.2988C13.6379 19.3724 13.9154 19.3578 14.1666 19.2572C15.1331 18.8682 16.0328 18.3306 16.8333 17.6639C17.0344 17.4976 17.1776 17.2719 17.2423 17.0191C17.307 16.7664 17.2898 16.4996 17.1933 16.2572C17.0365 15.886 16.9682 15.4834 16.9936 15.0812C17.0191 14.679 17.1377 14.2883 17.34 13.9398C17.5424 13.5913 17.823 13.2947 18.1597 13.0732C18.4964 12.8518 18.8799 12.7116 19.28 12.6638C19.5395 12.6279 19.7808 12.5104 19.969 12.3282C20.1571 12.146 20.2824 11.9087 20.3267 11.6505C20.4338 11.0945 20.4918 10.5301 20.5 9.96385C20.5002 9.3666 20.4443 8.7707 20.3333 8.18385C20.2883 7.9314 20.1649 7.6995 19.9806 7.5212C19.7963 7.3429 19.5605 7.2272 19.3067 7.1905ZM13.8334 9.96385C13.8334 10.6231 13.6379 11.2676 13.2716 11.8158C12.9053 12.3639 12.3847 12.7912 11.7756 13.0435C11.1666 13.2958 10.4963 13.3617 9.8497 13.2331C9.2031 13.1045 8.60915 12.7871 8.143 12.3209C7.6768 11.8547 7.35935 11.2608 7.2307 10.6142C7.1021 9.96755 7.1681 9.29735 7.4204 8.68825C7.6727 8.07915 8.09995 7.55855 8.6481 7.1923C9.19625 6.826 9.84075 6.6305 10.5 6.6305C11.3841 6.6305 12.2319 6.9817 12.857 7.60685C13.4821 8.23195 13.8334 9.0798 13.8334 9.96385Z" fill="#92CDD2"/>
</g>
<defs>
<clipPath id="clip0_4607_16">
<rect width="20" height="19" fill="white" transform="translate(0.5 0.5)"/>
</clipPath>
</defs>
</svg>
