<svg width="20" height="22" viewBox="0 0 20 22" fill="none" xmlns="http://www.w3.org/2000/svg">
<g clip-path="url(#clip0_4607_18)">
<path d="M17.1159 21.8108H12.7517C12.3741 21.8108 12.0141 21.6486 11.7646 21.3651L8.29262 17.4233C7.87186 16.9459 7.84937 16.2366 8.23856 15.7335C8.6544 15.1954 9.41029 15.0582 9.9891 15.4158L11.9026 16.6008V11.2229C11.9026 10.4686 12.5139 9.85654 13.2689 9.85654C14.0232 9.85654 14.6353 10.4678 14.6353 11.2229V14.6299L18.083 15.0524C19.081 15.1746 19.733 16.1601 19.4552 17.1264L18.3808 20.8595C18.2178 21.4224 17.7022 21.8108 17.1159 21.8108Z" fill="#92CDD2"/>
<path d="M7.96838 0.189178C3.56757 0.189178 0 3.75675 0 8.15756C0 12.1518 2.94221 15.4499 6.77589 16.027C6.85238 15.652 7.0046 15.2894 7.2507 14.9709C7.74222 14.3347 8.48568 13.9696 9.28984 13.9696C9.76881 13.9696 10.237 14.1035 10.6445 14.3555L10.6545 14.3613V11.2229C10.6545 9.78172 11.827 8.60912 13.2682 8.60912C14.341 8.60912 15.2632 9.26026 15.6649 10.1867C15.8354 9.53804 15.9359 8.86026 15.9359 8.15756C15.9368 3.75675 12.3692 0.189178 7.96838 0.189178ZM8.716 11.5413V11.9305C8.716 12.3439 8.38087 12.679 7.96757 12.679C7.55427 12.679 7.21914 12.3439 7.21914 11.9305V11.7467C6.82908 11.7418 6.44908 11.5896 6.168 11.3177C5.86778 11.0274 5.70146 10.6374 5.70146 10.2191C5.70146 9.80583 6.03659 9.47069 6.44989 9.47069C6.86319 9.47069 7.19832 9.80496 7.19832 10.2183C7.19832 10.2233 7.19832 10.2316 7.20832 10.2407C7.53595 10.2407 9.01038 10.1551 9.02703 9.51475C9.02784 9.47983 9.00124 9.15966 7.79876 8.88604C6.14719 8.51102 5.34636 7.77253 5.42038 6.69145C5.46027 6.09934 5.77632 5.18377 7.21827 4.77379V4.38294C7.21827 3.96964 7.55341 3.6345 7.96676 3.6345C8.38005 3.6345 8.71519 3.96964 8.71519 4.38294V4.57088C9.11687 4.56756 9.47611 4.71974 9.76049 4.99417C10.0574 5.28107 10.2287 5.68275 10.2287 6.09604C10.2287 6.50934 9.89357 6.84448 9.48027 6.84448C9.06692 6.84448 8.73178 6.50934 8.73178 6.09604C8.16881 6.08026 6.95551 6.18999 6.91395 6.79377C6.90643 6.89934 7.01124 7.17296 8.13054 7.42745C9.7447 7.79502 10.5497 8.51015 10.5231 9.55469C10.5106 10.0561 10.2811 11.0956 8.716 11.5413Z" fill="#92CDD2"/>
</g>
<defs>
<clipPath id="clip0_4607_18">
<rect width="20" height="21.6216" fill="white" transform="translate(0 0.189178)"/>
</clipPath>
</defs>
</svg>
