<svg width="21" height="20" viewBox="0 0 21 20" fill="none" xmlns="http://www.w3.org/2000/svg">
<g clip-path="url(#clip0_4607_21)">
<mask id="mask0_4607_21" style="mask-type:luminance" maskUnits="userSpaceOnUse" x="0" y="0" width="21" height="20">
<path d="M20.5 0H0.5V20H20.5V0Z" fill="white"/>
</mask>
<g mask="url(#mask0_4607_21)">
<path d="M10.5 0.000427246C4.97773 0.000427246 0.5 4.47728 0.5 9.99999C0.5 15.5227 4.97729 19.9995 10.5 19.9995C16.0231 19.9995 20.5 15.5227 20.5 9.99999C20.5 4.47728 16.0231 0.000427246 10.5 0.000427246ZM10.5 2.99041C12.3273 2.99041 13.808 4.47157 13.808 6.29799C13.808 8.12484 12.3273 9.60554 10.5 9.60554C8.6736 9.60554 7.1929 8.12484 7.1929 6.29799C7.1929 4.47157 8.6736 2.99041 10.5 2.99041ZM10.4978 17.3851C8.67535 17.3851 7.0062 16.7214 5.71875 15.6228C5.40512 15.3553 5.22415 14.9631 5.22415 14.5515C5.22415 12.6992 6.7233 11.2167 8.5761 11.2167H12.4248C14.278 11.2167 15.7715 12.6992 15.7715 14.5515C15.7715 14.9635 15.5913 15.3549 15.2773 15.6224C13.9903 16.7214 12.3207 17.3851 10.4978 17.3851Z" fill="#92CDD2"/>
</g>
</g>
<defs>
<clipPath id="clip0_4607_21">
<rect width="20" height="20" fill="white" transform="translate(0.5)"/>
</clipPath>
</defs>
</svg>
