<svg width="21" height="20" viewBox="0 0 21 20" fill="none" xmlns="http://www.w3.org/2000/svg">
<g clip-path="url(#clip0_4607_27)">
<mask id="mask0_4607_27" style="mask-type:luminance" maskUnits="userSpaceOnUse" x="0" y="0" width="21" height="20">
<path d="M20.5 0H0.5V20H20.5V0Z" fill="white"/>
</mask>
<g mask="url(#mask0_4607_27)">
<path d="M20.2375 6.78274L10.8625 0.116083C10.6459 -0.038084 10.355 -0.038084 10.1383 0.116083L0.763333 6.78274C0.598333 6.89944 0.5 7.08944 0.5 7.29194V10.2086C0.5 10.4427 0.630833 10.6569 0.838333 10.7644C1.04666 10.8711 1.29584 10.8536 1.48667 10.7186L2.16666 10.2344V19.1669C2.16666 19.6269 2.54 20.0002 3 20.0002H4.66667V10.0002H16.3334V20.0002H18C18.46 20.0002 18.8333 19.6269 18.8333 19.1669V10.2344L19.5125 10.7177C19.6209 10.7944 19.7475 10.8336 19.875 10.8336C19.9734 10.8336 20.0708 10.8102 20.1616 10.7644C20.3691 10.6569 20.5 10.4427 20.5 10.2086V7.29194C20.5 7.08944 20.4016 6.89944 20.2375 6.78274Z" fill="#92CDD2"/>
<path d="M5.91675 17.9167H15.0834V20H5.91675V17.9167Z" fill="#92CDD2"/>
<path d="M5.91675 14.5834H15.0834V16.6667H5.91675V14.5834Z" fill="#92CDD2"/>
<path d="M5.91675 11.25H15.0834V13.3334H5.91675V11.25Z" fill="#92CDD2"/>
</g>
</g>
<defs>
<clipPath id="clip0_4607_27">
<rect width="20" height="20" fill="white" transform="translate(0.5)"/>
</clipPath>
</defs>
</svg>
