<svg width="21" height="20" viewBox="0 0 21 20" fill="none" xmlns="http://www.w3.org/2000/svg">
<g clip-path="url(#clip0_4607_47)">
<mask id="mask0_4607_47" style="mask-type:luminance" maskUnits="userSpaceOnUse" x="0" y="0" width="21" height="20">
<path d="M20.5 0H0.5V20H20.5V0Z" fill="white"/>
</mask>
<g mask="url(#mask0_4607_47)">
<path d="M20.1643 9.10435L17.1332 6.07325V2.57183C17.1332 1.93873 16.6202 1.42564 15.9861 1.42564C15.3536 1.42564 14.8405 1.93873 14.8405 2.57183V3.7806L12.5836 1.52363C11.4678 0.408402 9.5277 0.41038 8.4144 1.52564L0.835549 9.10435C0.388151 9.55265 0.388151 10.278 0.835549 10.7256C1.28315 11.1738 2.00992 11.1738 2.45736 10.7256L10.0355 3.14668C10.2824 2.9011 10.7175 2.9011 10.9631 3.14596L18.5425 10.7256C18.7672 10.9497 19.0603 11.0612 19.3533 11.0612C19.6468 11.0612 19.9403 10.9496 20.1644 10.7256C20.6119 10.2781 20.6119 9.5527 20.1643 9.10435Z" fill="#92CDD2"/>
<path d="M10.8981 5.32245C10.6779 5.10235 10.3213 5.10235 10.1018 5.32245L3.43542 11.9869C3.33018 12.0921 3.27051 12.2357 3.27051 12.3856V17.2464C3.27051 18.387 4.19534 19.3118 5.33592 19.3118H8.63644V14.2004H12.3627V19.3118H15.6633C16.8038 19.3118 17.7286 18.387 17.7286 17.2464V12.3856C17.7286 12.2357 17.6695 12.0921 17.5637 11.9869L10.8981 5.32245Z" fill="#92CDD2"/>
</g>
</g>
<defs>
<clipPath id="clip0_4607_47">
<rect width="20" height="20" fill="white" transform="translate(0.5)"/>
</clipPath>
</defs>
</svg>
